<svg width="441" height="395" viewBox="0 0 441 395" fill="none" xmlns="http://www.w3.org/2000/svg">
<path d="M250.204 2.54442C243.746 6.16452 242.083 9.88246 239.05 26.9067C237.68 34.9296 235.625 45.4964 234.647 50.3884C232.69 59.9768 232.495 67.9019 232.592 140.597L232.69 176.994L241.496 170.634C254.998 160.948 262.532 156.35 274.664 150.284C308.517 133.259 340.902 130.324 363.112 142.065C388.354 155.469 398.432 188.735 385.517 216.228C381.995 223.86 370.939 234.622 362.818 238.536C354.502 242.449 343.641 244.602 332.194 244.602H322.997L322.41 233.448C322.019 227.382 322.019 220.337 322.312 217.989C322.704 215.543 322.508 213.293 322.116 212.999C321.627 212.706 317.909 213.391 313.898 214.369C300.396 217.794 285.72 227.284 247.366 257.223C229.168 271.41 200.501 291.565 198.446 291.565C196.685 291.565 197.37 293.913 203.925 311.72C207.447 321.309 213.611 338.137 217.525 348.9C221.536 359.76 225.841 370.816 227.211 373.458C230.538 380.111 237.68 386.862 245.312 390.678L251.769 393.809H277.208C300.102 393.809 302.94 393.613 306.071 391.95C311.843 388.917 317.714 382.557 319.964 376.687C322.116 371.501 322.214 369.936 322.312 339.018C322.312 321.211 322.41 303.11 322.508 298.61L322.704 290.587H334.738C348.533 290.587 361.938 288.63 372.504 285.108C388.844 279.629 406.651 267.888 417.022 255.853C435.807 233.937 444.613 201.65 439.623 172.983C435.709 150.479 427.295 133.553 412.521 118.485C392.855 98.526 367.221 89.0354 332.488 89.0354H322.214L321.921 73.3809C321.725 60.5638 321.138 55.1826 318.888 44.2245C317.322 36.8864 315.365 26.6132 314.485 21.5255C312.724 11.4479 310.082 5.77316 305.777 2.54442C303.135 0.587613 301.57 0.489772 278.871 0.196251L254.704 0.000569746L250.204 2.54442ZM266.934 90.503C266.934 99.6022 266.934 99.7979 264.684 99.7979C263.314 99.7979 260.086 97.8411 256.759 94.9059C253.726 92.1663 250.302 90.0138 249.323 90.0138C245.507 90.0138 244.431 88.9376 244.431 85.024V81.2082H255.683H266.934V90.503ZM309.984 85.1218C309.984 88.7419 309.789 88.9376 306.364 89.6225C304.016 90.0138 301.081 91.8728 298.243 94.5145C293.743 98.7216 289.242 101.168 288.068 100.091C287.285 99.3087 287.285 91.4814 288.068 85.7089L288.753 81.2082H299.32H309.984V85.1218Z" fill="url(#paint0_linear_159_586)"/>
<path d="M141.014 91.0898C130.74 93.0466 121.054 100.189 116.651 108.799C115.379 111.343 112.151 119.072 109.509 125.921C106.965 132.868 100.997 148.326 96.3984 160.459C91.7999 172.591 84.0705 192.844 79.2763 205.465C74.3842 218.087 69.4922 231.002 68.3181 234.133C66.7527 237.948 66.3613 240.101 67.0462 240.786C67.5354 241.275 72.4274 242.645 77.7108 243.819C85.8316 245.482 89.4517 245.678 100.116 245.189C107.161 244.895 113.912 244.308 115.282 244.014C117.532 243.525 118.706 240.981 127.512 216.913C132.795 202.237 139.155 184.723 141.601 177.776C144.047 170.928 146.297 165.351 146.591 165.351C146.884 165.351 151.678 177.972 157.255 193.431C162.832 208.988 167.528 221.805 167.724 222C168.702 223.174 209.208 194.899 209.208 193.04C209.208 192.355 208.034 188.832 206.665 185.212C205.295 181.494 197.174 159.872 188.564 136.977C179.954 114.082 172.42 94.2207 171.833 92.6552L170.855 90.0135L157.94 90.1114C150.896 90.2092 143.264 90.6006 141.014 91.0898Z" fill="url(#paint1_linear_159_586)"/>
<path d="M141.014 91.0898C130.74 93.0466 121.054 100.189 116.651 108.799C115.379 111.343 112.151 119.072 109.509 125.921C106.965 132.868 100.997 148.326 96.3984 160.459C91.7999 172.591 84.0705 192.844 79.2763 205.465C74.3842 218.087 69.4922 231.002 68.3181 234.133C66.7527 237.948 66.3613 240.101 67.0462 240.786C67.5354 241.275 72.4274 242.645 77.7108 243.819C85.8316 245.482 89.4517 245.678 100.116 245.189C107.161 244.895 113.912 244.308 115.282 244.014C117.532 243.525 118.706 240.981 127.512 216.913C132.795 202.237 139.155 184.723 141.601 177.776C144.047 170.928 146.297 165.351 146.591 165.351C146.884 165.351 151.678 177.972 157.255 193.431C162.832 208.988 167.528 221.805 167.724 222C168.702 223.174 209.208 194.899 209.208 193.04C209.208 192.355 208.034 188.832 206.665 185.212C205.295 181.494 197.174 159.872 188.564 136.977C179.954 114.082 172.42 94.2207 171.833 92.6552L170.855 90.0135L157.94 90.1114C150.896 90.2092 143.264 90.6006 141.014 91.0898Z" fill="url(#paint2_linear_159_586)"/>
<path d="M141.014 91.0898C130.74 93.0466 121.054 100.189 116.651 108.799C115.379 111.343 112.151 119.072 109.509 125.921C106.965 132.868 100.997 148.326 96.3984 160.459C91.7999 172.591 84.0705 192.844 79.2763 205.465C74.3842 218.087 69.4922 231.002 68.3181 234.133C66.7527 237.948 66.3613 240.101 67.0462 240.786C67.5354 241.275 72.4274 242.645 77.7108 243.819C85.8316 245.482 89.4517 245.678 100.116 245.189C107.161 244.895 113.912 244.308 115.282 244.014C117.532 243.525 118.706 240.981 127.512 216.913C132.795 202.237 139.155 184.723 141.601 177.776C144.047 170.928 146.297 165.351 146.591 165.351C146.884 165.351 151.678 177.972 157.255 193.431C162.832 208.988 167.528 221.805 167.724 222C168.702 223.174 209.208 194.899 209.208 193.04C209.208 192.355 208.034 188.832 206.665 185.212C205.295 181.494 197.174 159.872 188.564 136.977C179.954 114.082 172.42 94.2207 171.833 92.6552L170.855 90.0135L157.94 90.1114C150.896 90.2092 143.264 90.6006 141.014 91.0898Z" fill="url(#paint3_linear_159_586)"/>
<path d="M141.014 91.0898C130.74 93.0466 121.054 100.189 116.651 108.799C115.379 111.343 112.151 119.072 109.509 125.921C106.965 132.868 100.997 148.326 96.3984 160.459C91.7999 172.591 84.0705 192.844 79.2763 205.465C74.3842 218.087 69.4922 231.002 68.3181 234.133C66.7527 237.948 66.3613 240.101 67.0462 240.786C67.5354 241.275 72.4274 242.645 77.7108 243.819C85.8316 245.482 89.4517 245.678 100.116 245.189C107.161 244.895 113.912 244.308 115.282 244.014C117.532 243.525 118.706 240.981 127.512 216.913C132.795 202.237 139.155 184.723 141.601 177.776C144.047 170.928 146.297 165.351 146.591 165.351C146.884 165.351 151.678 177.972 157.255 193.431C162.832 208.988 167.528 221.805 167.724 222C168.702 223.174 209.208 194.899 209.208 193.04C209.208 192.355 208.034 188.832 206.665 185.212C205.295 181.494 197.174 159.872 188.564 136.977C179.954 114.082 172.42 94.2207 171.833 92.6552L170.855 90.0135L157.94 90.1114C150.896 90.2092 143.264 90.6006 141.014 91.0898Z" fill="url(#paint4_linear_159_586)"/>
<path d="M141.014 91.0898C130.74 93.0466 121.054 100.189 116.651 108.799C115.379 111.343 112.151 119.072 109.509 125.921C106.965 132.868 100.997 148.326 96.3984 160.459C91.7999 172.591 84.0705 192.844 79.2763 205.465C74.3842 218.087 69.4922 231.002 68.3181 234.133C66.7527 237.948 66.3613 240.101 67.0462 240.786C67.5354 241.275 72.4274 242.645 77.7108 243.819C85.8316 245.482 89.4517 245.678 100.116 245.189C107.161 244.895 113.912 244.308 115.282 244.014C117.532 243.525 118.706 240.981 127.512 216.913C132.795 202.237 139.155 184.723 141.601 177.776C144.047 170.928 146.297 165.351 146.591 165.351C146.884 165.351 151.678 177.972 157.255 193.431C162.832 208.988 167.528 221.805 167.724 222C168.702 223.174 209.208 194.899 209.208 193.04C209.208 192.355 208.034 188.832 206.665 185.212C205.295 181.494 197.174 159.872 188.564 136.977C179.954 114.082 172.42 94.2207 171.833 92.6552L170.855 90.0135L157.94 90.1114C150.896 90.2092 143.264 90.6006 141.014 91.0898Z" fill="url(#paint5_linear_159_586)"/>
<path d="M141.014 91.0898C130.74 93.0466 121.054 100.189 116.651 108.799C115.379 111.343 112.151 119.072 109.509 125.921C106.965 132.868 100.997 148.326 96.3984 160.459C91.7999 172.591 84.0705 192.844 79.2763 205.465C74.3842 218.087 69.4922 231.002 68.3181 234.133C66.7527 237.948 66.3613 240.101 67.0462 240.786C67.5354 241.275 72.4274 242.645 77.7108 243.819C85.8316 245.482 89.4517 245.678 100.116 245.189C107.161 244.895 113.912 244.308 115.282 244.014C117.532 243.525 118.706 240.981 127.512 216.913C132.795 202.237 139.155 184.723 141.601 177.776C144.047 170.928 146.297 165.351 146.591 165.351C146.884 165.351 151.678 177.972 157.255 193.431C162.832 208.988 167.528 221.805 167.724 222C168.702 223.174 209.208 194.899 209.208 193.04C209.208 192.355 208.034 188.832 206.665 185.212C205.295 181.494 197.174 159.872 188.564 136.977C179.954 114.082 172.42 94.2207 171.833 92.6552L170.855 90.0135L157.94 90.1114C150.896 90.2092 143.264 90.6006 141.014 91.0898Z" fill="url(#paint6_linear_159_586)"/>
<path d="M141.014 91.0898C130.74 93.0466 121.054 100.189 116.651 108.799C115.379 111.343 112.151 119.072 109.509 125.921C106.965 132.868 100.997 148.326 96.3984 160.459C91.7999 172.591 84.0705 192.844 79.2763 205.465C74.3842 218.087 69.4922 231.002 68.3181 234.133C66.7527 237.948 66.3613 240.101 67.0462 240.786C67.5354 241.275 72.4274 242.645 77.7108 243.819C85.8316 245.482 89.4517 245.678 100.116 245.189C107.161 244.895 113.912 244.308 115.282 244.014C117.532 243.525 118.706 240.981 127.512 216.913C132.795 202.237 139.155 184.723 141.601 177.776C144.047 170.928 146.297 165.351 146.591 165.351C146.884 165.351 151.678 177.972 157.255 193.431C162.832 208.988 167.528 221.805 167.724 222C168.702 223.174 209.208 194.899 209.208 193.04C209.208 192.355 208.034 188.832 206.665 185.212C205.295 181.494 197.174 159.872 188.564 136.977C179.954 114.082 172.42 94.2207 171.833 92.6552L170.855 90.0135L157.94 90.1114C150.896 90.2092 143.264 90.6006 141.014 91.0898Z" fill="url(#paint7_linear_159_586)"/>
<path d="M141.014 91.0898C130.74 93.0466 121.054 100.189 116.651 108.799C115.379 111.343 112.151 119.072 109.509 125.921C106.965 132.868 100.997 148.326 96.3984 160.459C91.7999 172.591 84.0705 192.844 79.2763 205.465C74.3842 218.087 69.4922 231.002 68.3181 234.133C66.7527 237.948 66.3613 240.101 67.0462 240.786C67.5354 241.275 72.4274 242.645 77.7108 243.819C85.8316 245.482 89.4517 245.678 100.116 245.189C107.161 244.895 113.912 244.308 115.282 244.014C117.532 243.525 118.706 240.981 127.512 216.913C132.795 202.237 139.155 184.723 141.601 177.776C144.047 170.928 146.297 165.351 146.591 165.351C146.884 165.351 151.678 177.972 157.255 193.431C162.832 208.988 167.528 221.805 167.724 222C168.702 223.174 209.208 194.899 209.208 193.04C209.208 192.355 208.034 188.832 206.665 185.212C205.295 181.494 197.174 159.872 188.564 136.977C179.954 114.082 172.42 94.2207 171.833 92.6552L170.855 90.0135L157.94 90.1114C150.896 90.2092 143.264 90.6006 141.014 91.0898Z" fill="url(#paint8_linear_159_586)"/>
<path d="M141.014 91.0898C130.74 93.0466 121.054 100.189 116.651 108.799C115.379 111.343 112.151 119.072 109.509 125.921C106.965 132.868 100.997 148.326 96.3984 160.459C91.7999 172.591 84.0705 192.844 79.2763 205.465C74.3842 218.087 69.4922 231.002 68.3181 234.133C66.7527 237.948 66.3613 240.101 67.0462 240.786C67.5354 241.275 72.4274 242.645 77.7108 243.819C85.8316 245.482 89.4517 245.678 100.116 245.189C107.161 244.895 113.912 244.308 115.282 244.014C117.532 243.525 118.706 240.981 127.512 216.913C132.795 202.237 139.155 184.723 141.601 177.776C144.047 170.928 146.297 165.351 146.591 165.351C146.884 165.351 151.678 177.972 157.255 193.431C162.832 208.988 167.528 221.805 167.724 222C168.702 223.174 209.208 194.899 209.208 193.04C209.208 192.355 208.034 188.832 206.665 185.212C205.295 181.494 197.174 159.872 188.564 136.977C179.954 114.082 172.42 94.2207 171.833 92.6552L170.855 90.0135L157.94 90.1114C150.896 90.2092 143.264 90.6006 141.014 91.0898Z" fill="url(#paint9_linear_159_586)"/>
<path d="M250.204 2.54442C243.746 6.16452 242.083 9.88246 239.05 26.9067C237.68 34.9296 235.625 45.4964 234.647 50.3884C232.69 59.9768 232.495 67.9019 232.592 140.597L232.69 176.994L241.496 170.634C254.998 160.948 262.532 156.35 274.664 150.284C308.517 133.259 340.902 130.324 363.112 142.065C388.354 155.469 398.432 188.735 385.517 216.228C381.995 223.86 370.939 234.622 362.818 238.536C354.502 242.449 343.641 244.602 332.194 244.602H322.997L322.41 233.448C322.019 227.382 322.019 220.337 322.312 217.989C322.704 215.543 322.508 213.293 322.116 212.999C321.627 212.706 317.909 213.391 313.898 214.369C300.396 217.794 285.72 227.284 247.366 257.223C229.168 271.41 200.501 291.565 198.446 291.565C196.685 291.565 197.37 293.913 203.925 311.72C207.447 321.309 213.611 338.137 217.525 348.9C221.536 359.76 225.841 370.816 227.211 373.458C230.538 380.111 237.68 386.862 245.312 390.678L251.769 393.809H277.208C300.102 393.809 302.94 393.613 306.071 391.95C311.843 388.917 317.714 382.557 319.964 376.687C322.116 371.501 322.214 369.936 322.312 339.018C322.312 321.211 322.41 303.11 322.508 298.61L322.704 290.587H334.738C348.533 290.587 361.938 288.63 372.504 285.108C388.844 279.629 406.651 267.888 417.022 255.853C435.807 233.937 444.613 201.65 439.623 172.983C435.709 150.479 427.295 133.553 412.521 118.485C392.855 98.526 367.221 89.0354 332.488 89.0354H322.214L321.921 73.3809C321.725 60.5638 321.138 55.1826 318.888 44.2245C317.322 36.8864 315.365 26.6132 314.485 21.5255C312.724 11.4479 310.082 5.77316 305.777 2.54442C303.135 0.587613 301.57 0.489772 278.871 0.196251L254.704 0.000569746L250.204 2.54442ZM266.934 90.503C266.934 99.6022 266.934 99.7979 264.684 99.7979C263.314 99.7979 260.086 97.8411 256.759 94.9059C253.726 92.1663 250.302 90.0138 249.323 90.0138C245.507 90.0138 244.431 88.9376 244.431 85.024V81.2082H255.683H266.934V90.503ZM309.984 85.1218C309.984 88.7419 309.789 88.9376 306.364 89.6225C304.016 90.0138 301.081 91.8728 298.243 94.5145C293.743 98.7216 289.242 101.168 288.068 100.091C287.285 99.3087 287.285 91.4814 288.068 85.7089L288.753 81.2082H299.32H309.984V85.1218Z" fill="url(#paint10_linear_159_586)"/>
<path d="M250.204 2.54442C243.746 6.16452 242.083 9.88246 239.05 26.9067C237.68 34.9296 235.625 45.4964 234.647 50.3884C232.69 59.9768 232.495 67.9019 232.592 140.597L232.69 176.994L241.496 170.634C254.998 160.948 262.532 156.35 274.664 150.284C308.517 133.259 340.902 130.324 363.112 142.065C388.354 155.469 398.432 188.735 385.517 216.228C381.995 223.86 370.939 234.622 362.818 238.536C354.502 242.449 343.641 244.602 332.194 244.602H322.997L322.41 233.448C322.019 227.382 322.019 220.337 322.312 217.989C322.704 215.543 322.508 213.293 322.116 212.999C321.627 212.706 317.909 213.391 313.898 214.369C300.396 217.794 285.72 227.284 247.366 257.223C229.168 271.41 200.501 291.565 198.446 291.565C196.685 291.565 197.37 293.913 203.925 311.72C207.447 321.309 213.611 338.137 217.525 348.9C221.536 359.76 225.841 370.816 227.211 373.458C230.538 380.111 237.68 386.862 245.312 390.678L251.769 393.809H277.208C300.102 393.809 302.94 393.613 306.071 391.95C311.843 388.917 317.714 382.557 319.964 376.687C322.116 371.501 322.214 369.936 322.312 339.018C322.312 321.211 322.41 303.11 322.508 298.61L322.704 290.587H334.738C348.533 290.587 361.938 288.63 372.504 285.108C388.844 279.629 406.651 267.888 417.022 255.853C435.807 233.937 444.613 201.65 439.623 172.983C435.709 150.479 427.295 133.553 412.521 118.485C392.855 98.526 367.221 89.0354 332.488 89.0354H322.214L321.921 73.3809C321.725 60.5638 321.138 55.1826 318.888 44.2245C317.322 36.8864 315.365 26.6132 314.485 21.5255C312.724 11.4479 310.082 5.77316 305.777 2.54442C303.135 0.587613 301.57 0.489772 278.871 0.196251L254.704 0.000569746L250.204 2.54442ZM266.934 90.503C266.934 99.6022 266.934 99.7979 264.684 99.7979C263.314 99.7979 260.086 97.8411 256.759 94.9059C253.726 92.1663 250.302 90.0138 249.323 90.0138C245.507 90.0138 244.431 88.9376 244.431 85.024V81.2082H255.683H266.934V90.503ZM309.984 85.1218C309.984 88.7419 309.789 88.9376 306.364 89.6225C304.016 90.0138 301.081 91.8728 298.243 94.5145C293.743 98.7216 289.242 101.168 288.068 100.091C287.285 99.3087 287.285 91.4814 288.068 85.7089L288.753 81.2082H299.32H309.984V85.1218Z" fill="url(#paint11_linear_159_586)"/>
<path d="M250.204 2.54442C243.746 6.16452 242.083 9.88246 239.05 26.9067C237.68 34.9296 235.625 45.4964 234.647 50.3884C232.69 59.9768 232.495 67.9019 232.592 140.597L232.69 176.994L241.496 170.634C254.998 160.948 262.532 156.35 274.664 150.284C308.517 133.259 340.902 130.324 363.112 142.065C388.354 155.469 398.432 188.735 385.517 216.228C381.995 223.86 370.939 234.622 362.818 238.536C354.502 242.449 343.641 244.602 332.194 244.602H322.997L322.41 233.448C322.019 227.382 322.019 220.337 322.312 217.989C322.704 215.543 322.508 213.293 322.116 212.999C321.627 212.706 317.909 213.391 313.898 214.369C300.396 217.794 285.72 227.284 247.366 257.223C229.168 271.41 200.501 291.565 198.446 291.565C196.685 291.565 197.37 293.913 203.925 311.72C207.447 321.309 213.611 338.137 217.525 348.9C221.536 359.76 225.841 370.816 227.211 373.458C230.538 380.111 237.68 386.862 245.312 390.678L251.769 393.809H277.208C300.102 393.809 302.94 393.613 306.071 391.95C311.843 388.917 317.714 382.557 319.964 376.687C322.116 371.501 322.214 369.936 322.312 339.018C322.312 321.211 322.41 303.11 322.508 298.61L322.704 290.587H334.738C348.533 290.587 361.938 288.63 372.504 285.108C388.844 279.629 406.651 267.888 417.022 255.853C435.807 233.937 444.613 201.65 439.623 172.983C435.709 150.479 427.295 133.553 412.521 118.485C392.855 98.526 367.221 89.0354 332.488 89.0354H322.214L321.921 73.3809C321.725 60.5638 321.138 55.1826 318.888 44.2245C317.322 36.8864 315.365 26.6132 314.485 21.5255C312.724 11.4479 310.082 5.77316 305.777 2.54442C303.135 0.587613 301.57 0.489772 278.871 0.196251L254.704 0.000569746L250.204 2.54442ZM266.934 90.503C266.934 99.6022 266.934 99.7979 264.684 99.7979C263.314 99.7979 260.086 97.8411 256.759 94.9059C253.726 92.1663 250.302 90.0138 249.323 90.0138C245.507 90.0138 244.431 88.9376 244.431 85.024V81.2082H255.683H266.934V90.503ZM309.984 85.1218C309.984 88.7419 309.789 88.9376 306.364 89.6225C304.016 90.0138 301.081 91.8728 298.243 94.5145C293.743 98.7216 289.242 101.168 288.068 100.091C287.285 99.3087 287.285 91.4814 288.068 85.7089L288.753 81.2082H299.32H309.984V85.1218Z" fill="url(#paint12_linear_159_586)"/>
<path d="M250.204 2.54442C243.746 6.16452 242.083 9.88246 239.05 26.9067C237.68 34.9296 235.625 45.4964 234.647 50.3884C232.69 59.9768 232.495 67.9019 232.592 140.597L232.69 176.994L241.496 170.634C254.998 160.948 262.532 156.35 274.664 150.284C308.517 133.259 340.902 130.324 363.112 142.065C388.354 155.469 398.432 188.735 385.517 216.228C381.995 223.86 370.939 234.622 362.818 238.536C354.502 242.449 343.641 244.602 332.194 244.602H322.997L322.41 233.448C322.019 227.382 322.019 220.337 322.312 217.989C322.704 215.543 322.508 213.293 322.116 212.999C321.627 212.706 317.909 213.391 313.898 214.369C300.396 217.794 285.72 227.284 247.366 257.223C229.168 271.41 200.501 291.565 198.446 291.565C196.685 291.565 197.37 293.913 203.925 311.72C207.447 321.309 213.611 338.137 217.525 348.9C221.536 359.76 225.841 370.816 227.211 373.458C230.538 380.111 237.68 386.862 245.312 390.678L251.769 393.809H277.208C300.102 393.809 302.94 393.613 306.071 391.95C311.843 388.917 317.714 382.557 319.964 376.687C322.116 371.501 322.214 369.936 322.312 339.018C322.312 321.211 322.41 303.11 322.508 298.61L322.704 290.587H334.738C348.533 290.587 361.938 288.63 372.504 285.108C388.844 279.629 406.651 267.888 417.022 255.853C435.807 233.937 444.613 201.65 439.623 172.983C435.709 150.479 427.295 133.553 412.521 118.485C392.855 98.526 367.221 89.0354 332.488 89.0354H322.214L321.921 73.3809C321.725 60.5638 321.138 55.1826 318.888 44.2245C317.322 36.8864 315.365 26.6132 314.485 21.5255C312.724 11.4479 310.082 5.77316 305.777 2.54442C303.135 0.587613 301.57 0.489772 278.871 0.196251L254.704 0.000569746L250.204 2.54442ZM266.934 90.503C266.934 99.6022 266.934 99.7979 264.684 99.7979C263.314 99.7979 260.086 97.8411 256.759 94.9059C253.726 92.1663 250.302 90.0138 249.323 90.0138C245.507 90.0138 244.431 88.9376 244.431 85.024V81.2082H255.683H266.934V90.503ZM309.984 85.1218C309.984 88.7419 309.789 88.9376 306.364 89.6225C304.016 90.0138 301.081 91.8728 298.243 94.5145C293.743 98.7216 289.242 101.168 288.068 100.091C287.285 99.3087 287.285 91.4814 288.068 85.7089L288.753 81.2082H299.32H309.984V85.1218Z" fill="url(#paint13_linear_159_586)"/>
<path d="M312.821 147.643C287.383 152.339 265.858 163.591 224.863 193.726C187.977 220.827 177.312 227.774 157.842 237.754C119.293 257.518 82.5049 260.159 56.8707 245.19C49.8262 241.08 39.1616 230.024 36.1285 223.665C29.1818 209.478 29.4753 192.845 36.7155 178.952C42.9773 166.82 53.7398 158.601 69.2964 153.905L76.6345 151.752H69.7856C54.816 151.654 42.3903 156.84 31.53 167.7C2.47137 196.759 11.7662 244.114 50.8046 266.03C65.1871 274.053 78.3956 277.184 98.1594 277.184C119.195 277.086 138.763 272.292 161.951 261.236C182.302 251.549 197.663 241.667 233.962 214.566C270.554 187.366 288.166 176.604 307.049 170.048C315.659 167.113 317.224 166.917 329.063 166.82C340.119 166.82 342.369 167.113 346.479 168.972C353.034 172.103 360.274 179.147 362.916 185.214C366.047 192.454 366.145 204.977 363.014 211.728C360.176 217.892 354.991 224.252 350.392 227.089C345.402 230.22 347.946 230.612 353.719 227.578C361.742 223.567 368.199 216.914 372.308 208.597C375.929 201.357 376.026 200.868 376.026 190.399C376.026 180.322 375.831 179.147 372.993 173.179C367.416 161.536 357.828 153.318 344.522 149.11C339.043 147.349 319.475 146.469 312.821 147.643Z" fill="white"/>
<path d="M312.821 147.643C287.383 152.339 265.858 163.591 224.863 193.726C187.977 220.827 177.312 227.774 157.842 237.754C119.293 257.518 82.5049 260.159 56.8707 245.19C49.8262 241.08 39.1616 230.024 36.1285 223.665C29.1818 209.478 29.4753 192.845 36.7155 178.952C42.9773 166.82 53.7398 158.601 69.2964 153.905L76.6345 151.752H69.7856C54.816 151.654 42.3903 156.84 31.53 167.7C2.47137 196.759 11.7662 244.114 50.8046 266.03C65.1871 274.053 78.3956 277.184 98.1594 277.184C119.195 277.086 138.763 272.292 161.951 261.236C182.302 251.549 197.663 241.667 233.962 214.566C270.554 187.366 288.166 176.604 307.049 170.048C315.659 167.113 317.224 166.917 329.063 166.82C340.119 166.82 342.369 167.113 346.479 168.972C353.034 172.103 360.274 179.147 362.916 185.214C366.047 192.454 366.145 204.977 363.014 211.728C360.176 217.892 354.991 224.252 350.392 227.089C345.402 230.22 347.946 230.612 353.719 227.578C361.742 223.567 368.199 216.914 372.308 208.597C375.929 201.357 376.026 200.868 376.026 190.399C376.026 180.322 375.831 179.147 372.993 173.179C367.416 161.536 357.828 153.318 344.522 149.11C339.043 147.349 319.475 146.469 312.821 147.643Z" fill="url(#paint14_linear_159_586)"/>
<path d="M312.821 147.643C287.383 152.339 265.858 163.591 224.863 193.726C187.977 220.827 177.312 227.774 157.842 237.754C119.293 257.518 82.5049 260.159 56.8707 245.19C49.8262 241.08 39.1616 230.024 36.1285 223.665C29.1818 209.478 29.4753 192.845 36.7155 178.952C42.9773 166.82 53.7398 158.601 69.2964 153.905L76.6345 151.752H69.7856C54.816 151.654 42.3903 156.84 31.53 167.7C2.47137 196.759 11.7662 244.114 50.8046 266.03C65.1871 274.053 78.3956 277.184 98.1594 277.184C119.195 277.086 138.763 272.292 161.951 261.236C182.302 251.549 197.663 241.667 233.962 214.566C270.554 187.366 288.166 176.604 307.049 170.048C315.659 167.113 317.224 166.917 329.063 166.82C340.119 166.82 342.369 167.113 346.479 168.972C353.034 172.103 360.274 179.147 362.916 185.214C366.047 192.454 366.145 204.977 363.014 211.728C360.176 217.892 354.991 224.252 350.392 227.089C345.402 230.22 347.946 230.612 353.719 227.578C361.742 223.567 368.199 216.914 372.308 208.597C375.929 201.357 376.026 200.868 376.026 190.399C376.026 180.322 375.831 179.147 372.993 173.179C367.416 161.536 357.828 153.318 344.522 149.11C339.043 147.349 319.475 146.469 312.821 147.643Z" fill="url(#paint15_linear_159_586)"/>
<path d="M312.821 147.643C287.383 152.339 265.858 163.591 224.863 193.726C187.977 220.827 177.312 227.774 157.842 237.754C119.293 257.518 82.5049 260.159 56.8707 245.19C49.8262 241.08 39.1616 230.024 36.1285 223.665C29.1818 209.478 29.4753 192.845 36.7155 178.952C42.9773 166.82 53.7398 158.601 69.2964 153.905L76.6345 151.752H69.7856C54.816 151.654 42.3903 156.84 31.53 167.7C2.47137 196.759 11.7662 244.114 50.8046 266.03C65.1871 274.053 78.3956 277.184 98.1594 277.184C119.195 277.086 138.763 272.292 161.951 261.236C182.302 251.549 197.663 241.667 233.962 214.566C270.554 187.366 288.166 176.604 307.049 170.048C315.659 167.113 317.224 166.917 329.063 166.82C340.119 166.82 342.369 167.113 346.479 168.972C353.034 172.103 360.274 179.147 362.916 185.214C366.047 192.454 366.145 204.977 363.014 211.728C360.176 217.892 354.991 224.252 350.392 227.089C345.402 230.22 347.946 230.612 353.719 227.578C361.742 223.567 368.199 216.914 372.308 208.597C375.929 201.357 376.026 200.868 376.026 190.399C376.026 180.322 375.831 179.147 372.993 173.179C367.416 161.536 357.828 153.318 344.522 149.11C339.043 147.349 319.475 146.469 312.821 147.643Z" fill="url(#paint16_linear_159_586)"/>
<path d="M312.821 147.643C287.383 152.339 265.858 163.591 224.863 193.726C187.977 220.827 177.312 227.774 157.842 237.754C119.293 257.518 82.5049 260.159 56.8707 245.19C49.8262 241.08 39.1616 230.024 36.1285 223.665C29.1818 209.478 29.4753 192.845 36.7155 178.952C42.9773 166.82 53.7398 158.601 69.2964 153.905L76.6345 151.752H69.7856C54.816 151.654 42.3903 156.84 31.53 167.7C2.47137 196.759 11.7662 244.114 50.8046 266.03C65.1871 274.053 78.3956 277.184 98.1594 277.184C119.195 277.086 138.763 272.292 161.951 261.236C182.302 251.549 197.663 241.667 233.962 214.566C270.554 187.366 288.166 176.604 307.049 170.048C315.659 167.113 317.224 166.917 329.063 166.82C340.119 166.82 342.369 167.113 346.479 168.972C353.034 172.103 360.274 179.147 362.916 185.214C366.047 192.454 366.145 204.977 363.014 211.728C360.176 217.892 354.991 224.252 350.392 227.089C345.402 230.22 347.946 230.612 353.719 227.578C361.742 223.567 368.199 216.914 372.308 208.597C375.929 201.357 376.026 200.868 376.026 190.399C376.026 180.322 375.831 179.147 372.993 173.179C367.416 161.536 357.828 153.318 344.522 149.11C339.043 147.349 319.475 146.469 312.821 147.643Z" fill="url(#paint17_linear_159_586)"/>
<path d="M312.821 147.643C287.383 152.339 265.858 163.591 224.863 193.726C187.977 220.827 177.312 227.774 157.842 237.754C119.293 257.518 82.5049 260.159 56.8707 245.19C49.8262 241.08 39.1616 230.024 36.1285 223.665C29.1818 209.478 29.4753 192.845 36.7155 178.952C42.9773 166.82 53.7398 158.601 69.2964 153.905L76.6345 151.752H69.7856C54.816 151.654 42.3903 156.84 31.53 167.7C2.47137 196.759 11.7662 244.114 50.8046 266.03C65.1871 274.053 78.3956 277.184 98.1594 277.184C119.195 277.086 138.763 272.292 161.951 261.236C182.302 251.549 197.663 241.667 233.962 214.566C270.554 187.366 288.166 176.604 307.049 170.048C315.659 167.113 317.224 166.917 329.063 166.82C340.119 166.82 342.369 167.113 346.479 168.972C353.034 172.103 360.274 179.147 362.916 185.214C366.047 192.454 366.145 204.977 363.014 211.728C360.176 217.892 354.991 224.252 350.392 227.089C345.402 230.22 347.946 230.612 353.719 227.578C361.742 223.567 368.199 216.914 372.308 208.597C375.929 201.357 376.026 200.868 376.026 190.399C376.026 180.322 375.831 179.147 372.993 173.179C367.416 161.536 357.828 153.318 344.522 149.11C339.043 147.349 319.475 146.469 312.821 147.643Z" fill="url(#paint18_linear_159_586)"/>
<path d="M312.821 147.643C287.383 152.339 265.858 163.591 224.863 193.726C187.977 220.827 177.312 227.774 157.842 237.754C119.293 257.518 82.5049 260.159 56.8707 245.19C49.8262 241.08 39.1616 230.024 36.1285 223.665C29.1818 209.478 29.4753 192.845 36.7155 178.952C42.9773 166.82 53.7398 158.601 69.2964 153.905L76.6345 151.752H69.7856C54.816 151.654 42.3903 156.84 31.53 167.7C2.47137 196.759 11.7662 244.114 50.8046 266.03C65.1871 274.053 78.3956 277.184 98.1594 277.184C119.195 277.086 138.763 272.292 161.951 261.236C182.302 251.549 197.663 241.667 233.962 214.566C270.554 187.366 288.166 176.604 307.049 170.048C315.659 167.113 317.224 166.917 329.063 166.82C340.119 166.82 342.369 167.113 346.479 168.972C353.034 172.103 360.274 179.147 362.916 185.214C366.047 192.454 366.145 204.977 363.014 211.728C360.176 217.892 354.991 224.252 350.392 227.089C345.402 230.22 347.946 230.612 353.719 227.578C361.742 223.567 368.199 216.914 372.308 208.597C375.929 201.357 376.026 200.868 376.026 190.399C376.026 180.322 375.831 179.147 372.993 173.179C367.416 161.536 357.828 153.318 344.522 149.11C339.043 147.349 319.475 146.469 312.821 147.643Z" fill="url(#paint19_linear_159_586)"/>
<path d="M305.581 190.887C296.678 192.159 287.187 195.486 274.957 201.65C262.727 207.814 255.096 212.804 235.723 227.186C183.183 266.322 151.874 282.564 118.217 288.239C104.813 290.391 81.0373 289.706 70.0792 286.771C39.4551 278.455 18.028 259.865 8.73317 233.546C5.40659 224.153 3.35194 211.923 3.84114 204.585C4.03682 201.943 3.93898 199.987 3.64546 200.378C2.27569 201.943 0.612406 211.434 0.123204 220.142C-1.05088 240.101 6.18931 259.963 20.8654 277.281C32.117 290.489 53.5441 303.306 73.6993 308.785C82.7984 311.329 84.8531 311.525 102.562 311.525C123.989 311.623 132.991 310.155 152.461 303.698C181.617 294.011 204.218 279.824 255.585 238.927C282.295 217.598 298.83 207.325 311.647 203.998C323.095 200.965 339.434 202.726 345.598 207.52C348.729 209.966 348.827 209.184 346.087 205.27C338.456 194.605 321.627 188.637 305.581 190.887Z" fill="white"/>
<path d="M305.581 190.887C296.678 192.159 287.187 195.486 274.957 201.65C262.727 207.814 255.096 212.804 235.723 227.186C183.183 266.322 151.874 282.564 118.217 288.239C104.813 290.391 81.0373 289.706 70.0792 286.771C39.4551 278.455 18.028 259.865 8.73317 233.546C5.40659 224.153 3.35194 211.923 3.84114 204.585C4.03682 201.943 3.93898 199.987 3.64546 200.378C2.27569 201.943 0.612406 211.434 0.123204 220.142C-1.05088 240.101 6.18931 259.963 20.8654 277.281C32.117 290.489 53.5441 303.306 73.6993 308.785C82.7984 311.329 84.8531 311.525 102.562 311.525C123.989 311.623 132.991 310.155 152.461 303.698C181.617 294.011 204.218 279.824 255.585 238.927C282.295 217.598 298.83 207.325 311.647 203.998C323.095 200.965 339.434 202.726 345.598 207.52C348.729 209.966 348.827 209.184 346.087 205.27C338.456 194.605 321.627 188.637 305.581 190.887Z" fill="url(#paint20_linear_159_586)"/>
<path d="M305.581 190.887C296.678 192.159 287.187 195.486 274.957 201.65C262.727 207.814 255.096 212.804 235.723 227.186C183.183 266.322 151.874 282.564 118.217 288.239C104.813 290.391 81.0373 289.706 70.0792 286.771C39.4551 278.455 18.028 259.865 8.73317 233.546C5.40659 224.153 3.35194 211.923 3.84114 204.585C4.03682 201.943 3.93898 199.987 3.64546 200.378C2.27569 201.943 0.612406 211.434 0.123204 220.142C-1.05088 240.101 6.18931 259.963 20.8654 277.281C32.117 290.489 53.5441 303.306 73.6993 308.785C82.7984 311.329 84.8531 311.525 102.562 311.525C123.989 311.623 132.991 310.155 152.461 303.698C181.617 294.011 204.218 279.824 255.585 238.927C282.295 217.598 298.83 207.325 311.647 203.998C323.095 200.965 339.434 202.726 345.598 207.52C348.729 209.966 348.827 209.184 346.087 205.27C338.456 194.605 321.627 188.637 305.581 190.887Z" fill="url(#paint21_linear_159_586)"/>
<path d="M305.581 190.887C296.678 192.159 287.187 195.486 274.957 201.65C262.727 207.814 255.096 212.804 235.723 227.186C183.183 266.322 151.874 282.564 118.217 288.239C104.813 290.391 81.0373 289.706 70.0792 286.771C39.4551 278.455 18.028 259.865 8.73317 233.546C5.40659 224.153 3.35194 211.923 3.84114 204.585C4.03682 201.943 3.93898 199.987 3.64546 200.378C2.27569 201.943 0.612406 211.434 0.123204 220.142C-1.05088 240.101 6.18931 259.963 20.8654 277.281C32.117 290.489 53.5441 303.306 73.6993 308.785C82.7984 311.329 84.8531 311.525 102.562 311.525C123.989 311.623 132.991 310.155 152.461 303.698C181.617 294.011 204.218 279.824 255.585 238.927C282.295 217.598 298.83 207.325 311.647 203.998C323.095 200.965 339.434 202.726 345.598 207.52C348.729 209.966 348.827 209.184 346.087 205.27C338.456 194.605 321.627 188.637 305.581 190.887Z" fill="url(#paint22_linear_159_586)"/>
<path d="M305.581 190.887C296.678 192.159 287.187 195.486 274.957 201.65C262.727 207.814 255.096 212.804 235.723 227.186C183.183 266.322 151.874 282.564 118.217 288.239C104.813 290.391 81.0373 289.706 70.0792 286.771C39.4551 278.455 18.028 259.865 8.73317 233.546C5.40659 224.153 3.35194 211.923 3.84114 204.585C4.03682 201.943 3.93898 199.987 3.64546 200.378C2.27569 201.943 0.612406 211.434 0.123204 220.142C-1.05088 240.101 6.18931 259.963 20.8654 277.281C32.117 290.489 53.5441 303.306 73.6993 308.785C82.7984 311.329 84.8531 311.525 102.562 311.525C123.989 311.623 132.991 310.155 152.461 303.698C181.617 294.011 204.218 279.824 255.585 238.927C282.295 217.598 298.83 207.325 311.647 203.998C323.095 200.965 339.434 202.726 345.598 207.52C348.729 209.966 348.827 209.184 346.087 205.27C338.456 194.605 321.627 188.637 305.581 190.887Z" fill="url(#paint23_linear_159_586)"/>
<path d="M305.581 190.887C296.678 192.159 287.187 195.486 274.957 201.65C262.727 207.814 255.096 212.804 235.723 227.186C183.183 266.322 151.874 282.564 118.217 288.239C104.813 290.391 81.0373 289.706 70.0792 286.771C39.4551 278.455 18.028 259.865 8.73317 233.546C5.40659 224.153 3.35194 211.923 3.84114 204.585C4.03682 201.943 3.93898 199.987 3.64546 200.378C2.27569 201.943 0.612406 211.434 0.123204 220.142C-1.05088 240.101 6.18931 259.963 20.8654 277.281C32.117 290.489 53.5441 303.306 73.6993 308.785C82.7984 311.329 84.8531 311.525 102.562 311.525C123.989 311.623 132.991 310.155 152.461 303.698C181.617 294.011 204.218 279.824 255.585 238.927C282.295 217.598 298.83 207.325 311.647 203.998C323.095 200.965 339.434 202.726 345.598 207.52C348.729 209.966 348.827 209.184 346.087 205.27C338.456 194.605 321.627 188.637 305.581 190.887Z" fill="url(#paint24_linear_159_586)"/>
<path d="M305.581 190.887C296.678 192.159 287.187 195.486 274.957 201.65C262.727 207.814 255.096 212.804 235.723 227.186C183.183 266.322 151.874 282.564 118.217 288.239C104.813 290.391 81.0373 289.706 70.0792 286.771C39.4551 278.455 18.028 259.865 8.73317 233.546C5.40659 224.153 3.35194 211.923 3.84114 204.585C4.03682 201.943 3.93898 199.987 3.64546 200.378C2.27569 201.943 0.612406 211.434 0.123204 220.142C-1.05088 240.101 6.18931 259.963 20.8654 277.281C32.117 290.489 53.5441 303.306 73.6993 308.785C82.7984 311.329 84.8531 311.525 102.562 311.525C123.989 311.623 132.991 310.155 152.461 303.698C181.617 294.011 204.218 279.824 255.585 238.927C282.295 217.598 298.83 207.325 311.647 203.998C323.095 200.965 339.434 202.726 345.598 207.52C348.729 209.966 348.827 209.184 346.087 205.27C338.456 194.605 321.627 188.637 305.581 190.887Z" fill="url(#paint25_linear_159_586)"/>
<path d="M305.581 190.887C296.678 192.159 287.187 195.486 274.957 201.65C262.727 207.814 255.096 212.804 235.723 227.186C183.183 266.322 151.874 282.564 118.217 288.239C104.813 290.391 81.0373 289.706 70.0792 286.771C39.4551 278.455 18.028 259.865 8.73317 233.546C5.40659 224.153 3.35194 211.923 3.84114 204.585C4.03682 201.943 3.93898 199.987 3.64546 200.378C2.27569 201.943 0.612406 211.434 0.123204 220.142C-1.05088 240.101 6.18931 259.963 20.8654 277.281C32.117 290.489 53.5441 303.306 73.6993 308.785C82.7984 311.329 84.8531 311.525 102.562 311.525C123.989 311.623 132.991 310.155 152.461 303.698C181.617 294.011 204.218 279.824 255.585 238.927C282.295 217.598 298.83 207.325 311.647 203.998C323.095 200.965 339.434 202.726 345.598 207.52C348.729 209.966 348.827 209.184 346.087 205.27C338.456 194.605 321.627 188.637 305.581 190.887Z" fill="url(#paint26_linear_159_586)"/>
<path d="M36.5198 314.753C29.9645 331.679 7.6569 389.111 5.99361 393.025C5.21088 394.982 34.8566 394.786 42.3903 392.829C53.0549 389.992 60.98 383.534 65.9698 373.457C69.5899 366.315 86.4185 321.993 85.7336 321.406C85.5379 321.112 82.1135 320.33 78.1999 319.449C68.9051 317.492 57.8491 313.676 48.7499 309.274C44.7385 307.317 41.1184 305.653 40.8248 305.458C40.4335 305.262 38.5745 309.469 36.5198 314.753Z" fill="black"/>
<path d="M36.5198 314.753C29.9645 331.679 7.6569 389.111 5.99361 393.025C5.21088 394.982 34.8566 394.786 42.3903 392.829C53.0549 389.992 60.98 383.534 65.9698 373.457C69.5899 366.315 86.4185 321.993 85.7336 321.406C85.5379 321.112 82.1135 320.33 78.1999 319.449C68.9051 317.492 57.8491 313.676 48.7499 309.274C44.7385 307.317 41.1184 305.653 40.8248 305.458C40.4335 305.262 38.5745 309.469 36.5198 314.753Z" fill="url(#paint27_linear_159_586)"/>
<path d="M36.5198 314.753C29.9645 331.679 7.6569 389.111 5.99361 393.025C5.21088 394.982 34.8566 394.786 42.3903 392.829C53.0549 389.992 60.98 383.534 65.9698 373.457C69.5899 366.315 86.4185 321.993 85.7336 321.406C85.5379 321.112 82.1135 320.33 78.1999 319.449C68.9051 317.492 57.8491 313.676 48.7499 309.274C44.7385 307.317 41.1184 305.653 40.8248 305.458C40.4335 305.262 38.5745 309.469 36.5198 314.753Z" fill="url(#paint28_linear_159_586)"/>
<path d="M36.5198 314.753C29.9645 331.679 7.6569 389.111 5.99361 393.025C5.21088 394.982 34.8566 394.786 42.3903 392.829C53.0549 389.992 60.98 383.534 65.9698 373.457C69.5899 366.315 86.4185 321.993 85.7336 321.406C85.5379 321.112 82.1135 320.33 78.1999 319.449C68.9051 317.492 57.8491 313.676 48.7499 309.274C44.7385 307.317 41.1184 305.653 40.8248 305.458C40.4335 305.262 38.5745 309.469 36.5198 314.753Z" fill="url(#paint29_linear_159_586)"/>
<path d="M36.5198 314.753C29.9645 331.679 7.6569 389.111 5.99361 393.025C5.21088 394.982 34.8566 394.786 42.3903 392.829C53.0549 389.992 60.98 383.534 65.9698 373.457C69.5899 366.315 86.4185 321.993 85.7336 321.406C85.5379 321.112 82.1135 320.33 78.1999 319.449C68.9051 317.492 57.8491 313.676 48.7499 309.274C44.7385 307.317 41.1184 305.653 40.8248 305.458C40.4335 305.262 38.5745 309.469 36.5198 314.753Z" fill="url(#paint30_linear_159_586)"/>
<path d="M36.5198 314.753C29.9645 331.679 7.6569 389.111 5.99361 393.025C5.21088 394.982 34.8566 394.786 42.3903 392.829C53.0549 389.992 60.98 383.534 65.9698 373.457C69.5899 366.315 86.4185 321.993 85.7336 321.406C85.5379 321.112 82.1135 320.33 78.1999 319.449C68.9051 317.492 57.8491 313.676 48.7499 309.274C44.7385 307.317 41.1184 305.653 40.8248 305.458C40.4335 305.262 38.5745 309.469 36.5198 314.753Z" fill="url(#paint31_linear_159_586)"/>
<path d="M36.5198 314.753C29.9645 331.679 7.6569 389.111 5.99361 393.025C5.21088 394.982 34.8566 394.786 42.3903 392.829C53.0549 389.992 60.98 383.534 65.9698 373.457C69.5899 366.315 86.4185 321.993 85.7336 321.406C85.5379 321.112 82.1135 320.33 78.1999 319.449C68.9051 317.492 57.8491 313.676 48.7499 309.274C44.7385 307.317 41.1184 305.653 40.8248 305.458C40.4335 305.262 38.5745 309.469 36.5198 314.753Z" fill="url(#paint32_linear_159_586)"/>
<path d="M36.5198 314.753C29.9645 331.679 7.6569 389.111 5.99361 393.025C5.21088 394.982 34.8566 394.786 42.3903 392.829C53.0549 389.992 60.98 383.534 65.9698 373.457C69.5899 366.315 86.4185 321.993 85.7336 321.406C85.5379 321.112 82.1135 320.33 78.1999 319.449C68.9051 317.492 57.8491 313.676 48.7499 309.274C44.7385 307.317 41.1184 305.653 40.8248 305.458C40.4335 305.262 38.5745 309.469 36.5198 314.753Z" fill="url(#paint33_linear_159_586)"/>
<path d="M36.5198 314.753C29.9645 331.679 7.6569 389.111 5.99361 393.025C5.21088 394.982 34.8566 394.786 42.3903 392.829C53.0549 389.992 60.98 383.534 65.9698 373.457C69.5899 366.315 86.4185 321.993 85.7336 321.406C85.5379 321.112 82.1135 320.33 78.1999 319.449C68.9051 317.492 57.8491 313.676 48.7499 309.274C44.7385 307.317 41.1184 305.653 40.8248 305.458C40.4335 305.262 38.5745 309.469 36.5198 314.753Z" fill="url(#paint34_linear_159_586)"/>
<path d="M36.5198 314.753C29.9645 331.679 7.6569 389.111 5.99361 393.025C5.21088 394.982 34.8566 394.786 42.3903 392.829C53.0549 389.992 60.98 383.534 65.9698 373.457C69.5899 366.315 86.4185 321.993 85.7336 321.406C85.5379 321.112 82.1135 320.33 78.1999 319.449C68.9051 317.492 57.8491 313.676 48.7499 309.274C44.7385 307.317 41.1184 305.653 40.8248 305.458C40.4335 305.262 38.5745 309.469 36.5198 314.753Z" fill="url(#paint35_linear_159_586)"/>
<path d="M36.5198 314.753C29.9645 331.679 7.6569 389.111 5.99361 393.025C5.21088 394.982 34.8566 394.786 42.3903 392.829C53.0549 389.992 60.98 383.534 65.9698 373.457C69.5899 366.315 86.4185 321.993 85.7336 321.406C85.5379 321.112 82.1135 320.33 78.1999 319.449C68.9051 317.492 57.8491 313.676 48.7499 309.274C44.7385 307.317 41.1184 305.653 40.8248 305.458C40.4335 305.262 38.5745 309.469 36.5198 314.753Z" fill="url(#paint36_linear_159_586)"/>
<path d="M36.5198 314.753C29.9645 331.679 7.6569 389.111 5.99361 393.025C5.21088 394.982 34.8566 394.786 42.3903 392.829C53.0549 389.992 60.98 383.534 65.9698 373.457C69.5899 366.315 86.4185 321.993 85.7336 321.406C85.5379 321.112 82.1135 320.33 78.1999 319.449C68.9051 317.492 57.8491 313.676 48.7499 309.274C44.7385 307.317 41.1184 305.653 40.8248 305.458C40.4335 305.262 38.5745 309.469 36.5198 314.753Z" fill="url(#paint37_linear_159_586)"/>
<path d="M36.5198 314.753C29.9645 331.679 7.6569 389.111 5.99361 393.025C5.21088 394.982 34.8566 394.786 42.3903 392.829C53.0549 389.992 60.98 383.534 65.9698 373.457C69.5899 366.315 86.4185 321.993 85.7336 321.406C85.5379 321.112 82.1135 320.33 78.1999 319.449C68.9051 317.492 57.8491 313.676 48.7499 309.274C44.7385 307.317 41.1184 305.653 40.8248 305.458C40.4335 305.262 38.5745 309.469 36.5198 314.753Z" fill="url(#paint38_linear_159_586)"/>
<path d="M36.5198 314.753C29.9645 331.679 7.6569 389.111 5.99361 393.025C5.21088 394.982 34.8566 394.786 42.3903 392.829C53.0549 389.992 60.98 383.534 65.9698 373.457C69.5899 366.315 86.4185 321.993 85.7336 321.406C85.5379 321.112 82.1135 320.33 78.1999 319.449C68.9051 317.492 57.8491 313.676 48.7499 309.274C44.7385 307.317 41.1184 305.653 40.8248 305.458C40.4335 305.262 38.5745 309.469 36.5198 314.753Z" fill="url(#paint39_linear_159_586)"/>
<defs>
<linearGradient id="paint0_linear_159_586" x1="319.307" y1="393.809" x2="319.307" y2="0.000579834" gradientUnits="userSpaceOnUse">
<stop offset="0.259615" stop-color="#FF7A43"/>
<stop offset="0.644231" stop-color="#9A46E8"/>
</linearGradient>
<linearGradient id="paint1_linear_159_586" x1="137.965" y1="245.423" x2="137.965" y2="90.0135" gradientUnits="userSpaceOnUse">
<stop offset="0.259615" stop-color="#FF7A43"/>
<stop offset="0.644231" stop-color="#9A46E8"/>
</linearGradient>
<linearGradient id="paint2_linear_159_586" x1="137.965" y1="245.423" x2="137.965" y2="90.0135" gradientUnits="userSpaceOnUse">
<stop offset="0.100962" stop-color="#EE0088"/>
<stop offset="0.375" stop-color="#BD27C9"/>
<stop offset="0.841346" stop-color="#911DFF"/>
</linearGradient>
<linearGradient id="paint3_linear_159_586" x1="137.965" y1="245.423" x2="137.965" y2="90.0135" gradientUnits="userSpaceOnUse">
<stop offset="0.100962" stop-color="#EE0088"/>
<stop offset="0.375" stop-color="#BD27C9"/>
<stop offset="0.841346" stop-color="#6400C3"/>
</linearGradient>
<linearGradient id="paint4_linear_159_586" x1="137.965" y1="245.423" x2="137.965" y2="90.0135" gradientUnits="userSpaceOnUse">
<stop offset="0.100962" stop-color="#920857"/>
<stop offset="0.375" stop-color="#64146B"/>
<stop offset="0.841346" stop-color="#6400C3"/>
</linearGradient>
<linearGradient id="paint5_linear_159_586" x1="137.965" y1="245.423" x2="137.965" y2="90.0135" gradientUnits="userSpaceOnUse">
<stop offset="0.841346" stop-color="#6400C3"/>
</linearGradient>
<linearGradient id="paint6_linear_159_586" x1="137.965" y1="245.423" x2="137.965" y2="90.0135" gradientUnits="userSpaceOnUse">
<stop offset="0.841346" stop-color="#7F21D7"/>
</linearGradient>
<linearGradient id="paint7_linear_159_586" x1="66.7224" y1="167.718" x2="209.208" y2="167.718" gradientUnits="userSpaceOnUse">
<stop stop-color="#D8C4EB"/>
<stop offset="1" stop-color="#E0DCE3"/>
</linearGradient>
<linearGradient id="paint8_linear_159_586" x1="66.7224" y1="167.718" x2="209.208" y2="167.718" gradientUnits="userSpaceOnUse">
<stop stop-color="#9541E4"/>
<stop offset="1" stop-color="#E0DCE3"/>
</linearGradient>
<linearGradient id="paint9_linear_159_586" x1="66.7224" y1="167.718" x2="209.208" y2="167.718" gradientUnits="userSpaceOnUse">
<stop stop-color="#9541E4"/>
<stop offset="1" stop-color="#D4B4F2"/>
</linearGradient>
<linearGradient id="paint10_linear_159_586" x1="319.307" y1="393.809" x2="319.307" y2="0.000579834" gradientUnits="userSpaceOnUse">
<stop offset="0.841346" stop-color="#7F21D7"/>
</linearGradient>
<linearGradient id="paint11_linear_159_586" x1="197.614" y1="196.905" x2="441" y2="196.905" gradientUnits="userSpaceOnUse">
<stop stop-color="#D8C4EB"/>
<stop offset="1" stop-color="#E0DCE3"/>
</linearGradient>
<linearGradient id="paint12_linear_159_586" x1="197.614" y1="196.905" x2="441" y2="196.905" gradientUnits="userSpaceOnUse">
<stop stop-color="#9541E4"/>
<stop offset="1" stop-color="#E0DCE3"/>
</linearGradient>
<linearGradient id="paint13_linear_159_586" x1="197.614" y1="196.905" x2="441" y2="196.905" gradientUnits="userSpaceOnUse">
<stop stop-color="#9541E4"/>
<stop offset="1" stop-color="#D4B4F2"/>
</linearGradient>
<linearGradient id="paint14_linear_159_586" x1="195.272" y1="277.184" x2="195.272" y2="147.108" gradientUnits="userSpaceOnUse">
<stop offset="0.100962" stop-color="#EE0088"/>
<stop offset="0.375" stop-color="#BD27C9"/>
<stop offset="0.841346" stop-color="#6400C3"/>
</linearGradient>
<linearGradient id="paint15_linear_159_586" x1="195.272" y1="277.184" x2="195.272" y2="147.108" gradientUnits="userSpaceOnUse">
<stop offset="0.841346" stop-color="#6400C3"/>
</linearGradient>
<linearGradient id="paint16_linear_159_586" x1="195.272" y1="277.184" x2="195.272" y2="147.108" gradientUnits="userSpaceOnUse">
<stop offset="0.841346" stop-color="#7F21D7"/>
</linearGradient>
<linearGradient id="paint17_linear_159_586" x1="14.517" y1="212.146" x2="376.026" y2="212.146" gradientUnits="userSpaceOnUse">
<stop stop-color="#D8C4EB"/>
<stop offset="1" stop-color="#E0DCE3"/>
</linearGradient>
<linearGradient id="paint18_linear_159_586" x1="14.517" y1="212.146" x2="376.026" y2="212.146" gradientUnits="userSpaceOnUse">
<stop stop-color="#9541E4"/>
<stop offset="1" stop-color="#E0DCE3"/>
</linearGradient>
<linearGradient id="paint19_linear_159_586" x1="14.517" y1="212.146" x2="376.026" y2="212.146" gradientUnits="userSpaceOnUse">
<stop stop-color="#9541E4"/>
<stop offset="1" stop-color="#D4B4F2"/>
</linearGradient>
<linearGradient id="paint20_linear_159_586" x1="174.025" y1="311.529" x2="174.025" y2="190.416" gradientUnits="userSpaceOnUse">
<stop offset="0.100962" stop-color="#EE0088"/>
<stop offset="0.375" stop-color="#BD27C9"/>
<stop offset="0.841346" stop-color="#6400C3"/>
</linearGradient>
<linearGradient id="paint21_linear_159_586" x1="174.025" y1="311.529" x2="174.025" y2="190.416" gradientUnits="userSpaceOnUse">
<stop offset="0.100962" stop-color="#920857"/>
<stop offset="0.375" stop-color="#64146B"/>
<stop offset="0.841346" stop-color="#6400C3"/>
</linearGradient>
<linearGradient id="paint22_linear_159_586" x1="174.025" y1="311.529" x2="174.025" y2="190.416" gradientUnits="userSpaceOnUse">
<stop offset="0.841346" stop-color="#6400C3"/>
</linearGradient>
<linearGradient id="paint23_linear_159_586" x1="174.025" y1="311.529" x2="174.025" y2="190.416" gradientUnits="userSpaceOnUse">
<stop offset="0.841346" stop-color="#7F21D7"/>
</linearGradient>
<linearGradient id="paint24_linear_159_586" x1="0" y1="250.973" x2="348.049" y2="250.973" gradientUnits="userSpaceOnUse">
<stop stop-color="#D8C4EB"/>
<stop offset="1" stop-color="#E0DCE3"/>
</linearGradient>
<linearGradient id="paint25_linear_159_586" x1="0" y1="250.973" x2="348.049" y2="250.973" gradientUnits="userSpaceOnUse">
<stop stop-color="#9541E4"/>
<stop offset="1" stop-color="#E0DCE3"/>
</linearGradient>
<linearGradient id="paint26_linear_159_586" x1="0" y1="250.973" x2="348.049" y2="250.973" gradientUnits="userSpaceOnUse">
<stop stop-color="#9541E4"/>
<stop offset="1" stop-color="#D4B4F2"/>
</linearGradient>
<linearGradient id="paint27_linear_159_586" x1="45.8662" y1="394.398" x2="45.8662" y2="305.451" gradientUnits="userSpaceOnUse">
<stop/>
<stop offset="1" stop-color="#7400FF"/>
</linearGradient>
<linearGradient id="paint28_linear_159_586" x1="45.8662" y1="394.398" x2="45.8662" y2="305.451" gradientUnits="userSpaceOnUse">
<stop stop-color="#E273E3"/>
<stop offset="1" stop-color="#7400FF"/>
</linearGradient>
<linearGradient id="paint29_linear_159_586" x1="45.8662" y1="394.398" x2="45.8662" y2="305.451" gradientUnits="userSpaceOnUse">
<stop offset="0.259615" stop-color="#D609D7"/>
<stop offset="0.923077" stop-color="#865CB9"/>
</linearGradient>
<linearGradient id="paint30_linear_159_586" x1="45.8662" y1="394.398" x2="45.8662" y2="305.451" gradientUnits="userSpaceOnUse">
<stop offset="0.259615" stop-color="#D609D7"/>
<stop offset="0.644231" stop-color="#9A46E8"/>
</linearGradient>
<linearGradient id="paint31_linear_159_586" x1="45.8662" y1="394.398" x2="45.8662" y2="305.451" gradientUnits="userSpaceOnUse">
<stop offset="0.9999" stop-color="#FF7A43"/>
<stop offset="1" stop-color="#9A46E8"/>
</linearGradient>
<linearGradient id="paint32_linear_159_586" x1="45.8662" y1="394.398" x2="45.8662" y2="305.451" gradientUnits="userSpaceOnUse">
<stop offset="0.100962" stop-color="#EE0088"/>
<stop offset="0.375" stop-color="#BD27C9"/>
<stop offset="0.841346" stop-color="#911DFF"/>
</linearGradient>
<linearGradient id="paint33_linear_159_586" x1="45.8662" y1="394.398" x2="45.8662" y2="305.451" gradientUnits="userSpaceOnUse">
<stop offset="0.100962" stop-color="#EE0088"/>
<stop offset="0.375" stop-color="#BD27C9"/>
<stop offset="0.841346" stop-color="#6400C3"/>
</linearGradient>
<linearGradient id="paint34_linear_159_586" x1="45.8662" y1="394.398" x2="45.8662" y2="305.451" gradientUnits="userSpaceOnUse">
<stop offset="0.100962" stop-color="#920857"/>
<stop offset="0.375" stop-color="#64146B"/>
<stop offset="0.841346" stop-color="#6400C3"/>
</linearGradient>
<linearGradient id="paint35_linear_159_586" x1="45.8662" y1="394.398" x2="45.8662" y2="305.451" gradientUnits="userSpaceOnUse">
<stop offset="0.841346" stop-color="#6400C3"/>
</linearGradient>
<linearGradient id="paint36_linear_159_586" x1="45.8662" y1="394.398" x2="45.8662" y2="305.451" gradientUnits="userSpaceOnUse">
<stop offset="0.841346" stop-color="#7F21D7"/>
</linearGradient>
<linearGradient id="paint37_linear_159_586" x1="5.97839" y1="349.925" x2="85.7539" y2="349.925" gradientUnits="userSpaceOnUse">
<stop stop-color="#D8C4EB"/>
<stop offset="1" stop-color="#E0DCE3"/>
</linearGradient>
<linearGradient id="paint38_linear_159_586" x1="5.97839" y1="349.925" x2="85.7539" y2="349.925" gradientUnits="userSpaceOnUse">
<stop stop-color="#9541E4"/>
<stop offset="1" stop-color="#E0DCE3"/>
</linearGradient>
<linearGradient id="paint39_linear_159_586" x1="5.97839" y1="349.925" x2="85.7539" y2="349.925" gradientUnits="userSpaceOnUse">
<stop stop-color="#9541E4"/>
<stop offset="1" stop-color="#D4B4F2"/>
</linearGradient>
</defs>
</svg>
