<svg width="578" height="559" viewBox="0 0 578 559" fill="none" xmlns="http://www.w3.org/2000/svg">
<path d="M302.54 2.60001C295.94 6.29999 294.24 10.1 291.14 27.5C289.74 35.7 287.64 46.5 286.64 51.5C284.64 61.3 284.44 69.4 284.54 143.7L284.64 180.9L293.64 174.4C307.44 164.5 315.14 159.8 327.54 153.6C362.14 136.2 395.24 133.2 417.94 145.2C443.74 158.9 454.04 192.9 440.84 221C437.24 228.8 425.94 239.8 417.64 243.8C409.14 247.8 398.04 250 386.34 250H376.94L376.34 238.6C375.94 232.4 375.94 225.2 376.24 222.8C376.64 220.3 376.44 218 376.04 217.7C375.54 217.4 371.74 218.1 367.64 219.1C353.84 222.6 338.84 232.3 299.64 262.9C281.04 277.4 251.74 298 249.64 298C247.84 298 248.54 300.4 255.24 318.6C258.84 328.4 265.14 345.6 269.14 356.6C273.24 367.7 277.64 379 279.04 381.7C282.44 388.5 289.74 395.4 297.54 399.3L304.14 402.5H330.14C353.54 402.5 356.44 402.3 359.64 400.6C365.54 397.5 371.54 391 373.84 385C376.04 379.7 376.14 378.1 376.24 346.5C376.24 328.3 376.34 309.8 376.44 305.2L376.64 297H388.94C403.04 297 416.74 295 427.54 291.4C444.24 285.8 462.44 273.8 473.04 261.5C492.24 239.1 501.24 206.1 496.14 176.8C492.14 153.8 483.54 136.5 468.44 121.1C448.34 100.7 422.14 91 386.64 91H376.14L375.84 75C375.64 61.9 375.04 56.4 372.74 45.2C371.14 37.7 369.14 27.2 368.24 22C366.44 11.7 363.74 5.89999 359.34 2.60001C356.64 0.600006 355.04 0.5 331.84 0.199982L307.14 0L302.54 2.60001ZM319.64 92.5C319.64 101.8 319.64 102 317.34 102C315.94 102 312.64 100 309.24 97C306.14 94.2 302.64 92 301.64 92C297.74 92 296.64 90.9 296.64 86.9V83H308.14H319.64V92.5ZM363.64 87C363.64 90.7 363.44 90.9 359.94 91.6C357.54 92 354.54 93.9 351.64 96.6C347.04 100.9 342.44 103.4 341.24 102.3C340.44 101.5 340.44 93.5 341.24 87.6L341.94 83H352.74H363.64V87Z" fill="url(#paint0_linear_151_5680)"/>
<path d="M190.94 93.1004C180.44 95.1004 170.54 102.4 166.04 111.2C164.74 113.8 161.44 121.7 158.74 128.7C156.14 135.8 150.04 151.6 145.34 164C140.64 176.4 132.74 197.1 127.84 210C122.84 222.9 117.84 236.1 116.64 239.3C115.04 243.2 114.64 245.4 115.34 246.1C115.84 246.6 120.84 248 126.24 249.2C134.54 250.9 138.24 251.1 149.14 250.6C156.34 250.3 163.24 249.7 164.64 249.4C166.94 248.9 168.14 246.3 177.14 221.7C182.54 206.7 189.04 188.8 191.54 181.7C194.04 174.7 196.34 169 196.64 169C196.94 169 201.84 181.9 207.54 197.7C213.24 213.6 218.04 226.7 218.24 226.9C219.24 228.1 260.64 199.2 260.64 197.3C260.64 196.6 259.44 193 258.04 189.3C256.64 185.5 248.34 163.4 239.54 140C230.74 116.6 223.04 96.3004 222.44 94.7004L221.44 92.0004L208.24 92.1004C201.04 92.2004 193.24 92.6004 190.94 93.1004Z" fill="black"/>
<path d="M190.94 93.1004C180.44 95.1004 170.54 102.4 166.04 111.2C164.74 113.8 161.44 121.7 158.74 128.7C156.14 135.8 150.04 151.6 145.34 164C140.64 176.4 132.74 197.1 127.84 210C122.84 222.9 117.84 236.1 116.64 239.3C115.04 243.2 114.64 245.4 115.34 246.1C115.84 246.6 120.84 248 126.24 249.2C134.54 250.9 138.24 251.1 149.14 250.6C156.34 250.3 163.24 249.7 164.64 249.4C166.94 248.9 168.14 246.3 177.14 221.7C182.54 206.7 189.04 188.8 191.54 181.7C194.04 174.7 196.34 169 196.64 169C196.94 169 201.84 181.9 207.54 197.7C213.24 213.6 218.04 226.7 218.24 226.9C219.24 228.1 260.64 199.2 260.64 197.3C260.64 196.6 259.44 193 258.04 189.3C256.64 185.5 248.34 163.4 239.54 140C230.74 116.6 223.04 96.3004 222.44 94.7004L221.44 92.0004L208.24 92.1004C201.04 92.2004 193.24 92.6004 190.94 93.1004Z" fill="url(#paint1_linear_151_5680)"/>
<path d="M190.94 93.1004C180.44 95.1004 170.54 102.4 166.04 111.2C164.74 113.8 161.44 121.7 158.74 128.7C156.14 135.8 150.04 151.6 145.34 164C140.64 176.4 132.74 197.1 127.84 210C122.84 222.9 117.84 236.1 116.64 239.3C115.04 243.2 114.64 245.4 115.34 246.1C115.84 246.6 120.84 248 126.24 249.2C134.54 250.9 138.24 251.1 149.14 250.6C156.34 250.3 163.24 249.7 164.64 249.4C166.94 248.9 168.14 246.3 177.14 221.7C182.54 206.7 189.04 188.8 191.54 181.7C194.04 174.7 196.34 169 196.64 169C196.94 169 201.84 181.9 207.54 197.7C213.24 213.6 218.04 226.7 218.24 226.9C219.24 228.1 260.64 199.2 260.64 197.3C260.64 196.6 259.44 193 258.04 189.3C256.64 185.5 248.34 163.4 239.54 140C230.74 116.6 223.04 96.3004 222.44 94.7004L221.44 92.0004L208.24 92.1004C201.04 92.2004 193.24 92.6004 190.94 93.1004Z" fill="url(#paint2_linear_151_5680)"/>
<path d="M190.94 93.1004C180.44 95.1004 170.54 102.4 166.04 111.2C164.74 113.8 161.44 121.7 158.74 128.7C156.14 135.8 150.04 151.6 145.34 164C140.64 176.4 132.74 197.1 127.84 210C122.84 222.9 117.84 236.1 116.64 239.3C115.04 243.2 114.64 245.4 115.34 246.1C115.84 246.6 120.84 248 126.24 249.2C134.54 250.9 138.24 251.1 149.14 250.6C156.34 250.3 163.24 249.7 164.64 249.4C166.94 248.9 168.14 246.3 177.14 221.7C182.54 206.7 189.04 188.8 191.54 181.7C194.04 174.7 196.34 169 196.64 169C196.94 169 201.84 181.9 207.54 197.7C213.24 213.6 218.04 226.7 218.24 226.9C219.24 228.1 260.64 199.2 260.64 197.3C260.64 196.6 259.44 193 258.04 189.3C256.64 185.5 248.34 163.4 239.54 140C230.74 116.6 223.04 96.3004 222.44 94.7004L221.44 92.0004L208.24 92.1004C201.04 92.2004 193.24 92.6004 190.94 93.1004Z" fill="url(#paint3_linear_151_5680)"/>
<path d="M190.94 93.1004C180.44 95.1004 170.54 102.4 166.04 111.2C164.74 113.8 161.44 121.7 158.74 128.7C156.14 135.8 150.04 151.6 145.34 164C140.64 176.4 132.74 197.1 127.84 210C122.84 222.9 117.84 236.1 116.64 239.3C115.04 243.2 114.64 245.4 115.34 246.1C115.84 246.6 120.84 248 126.24 249.2C134.54 250.9 138.24 251.1 149.14 250.6C156.34 250.3 163.24 249.7 164.64 249.4C166.94 248.9 168.14 246.3 177.14 221.7C182.54 206.7 189.04 188.8 191.54 181.7C194.04 174.7 196.34 169 196.64 169C196.94 169 201.84 181.9 207.54 197.7C213.24 213.6 218.04 226.7 218.24 226.9C219.24 228.1 260.64 199.2 260.64 197.3C260.64 196.6 259.44 193 258.04 189.3C256.64 185.5 248.34 163.4 239.54 140C230.74 116.6 223.04 96.3004 222.44 94.7004L221.44 92.0004L208.24 92.1004C201.04 92.2004 193.24 92.6004 190.94 93.1004Z" fill="url(#paint4_linear_151_5680)"/>
<path d="M366.54 150.901C340.54 155.701 318.54 167.201 276.64 198.001C238.94 225.701 228.04 232.801 208.14 243.001C168.74 263.201 131.14 265.901 104.94 250.601C97.7399 246.401 86.8399 235.101 83.7399 228.601C76.6399 214.101 76.9399 197.101 84.3399 182.901C90.7399 170.501 101.74 162.101 117.64 157.301L125.14 155.101H118.14C102.84 155.001 90.1399 160.301 79.0399 171.401C49.3399 201.101 58.8399 249.501 98.7399 271.901C113.44 280.101 126.94 283.301 147.14 283.301C168.64 283.201 188.64 278.301 212.34 267.001C233.14 257.101 248.84 247.001 285.94 219.301C323.34 191.501 341.34 180.501 360.64 173.801C369.44 170.801 371.04 170.601 383.14 170.501C394.44 170.501 396.74 170.801 400.94 172.701C407.64 175.901 415.04 183.101 417.74 189.301C420.94 196.701 421.04 209.501 417.84 216.401C414.94 222.701 409.64 229.201 404.94 232.101C399.84 235.301 402.44 235.701 408.34 232.601C416.54 228.501 423.14 221.701 427.34 213.201C431.04 205.801 431.14 205.301 431.14 194.601C431.14 184.301 430.94 183.101 428.04 177.001C422.34 165.101 412.54 156.701 398.94 152.401C393.34 150.601 373.34 149.701 366.54 150.901Z" fill="black"/>
<path d="M366.54 150.901C340.54 155.701 318.54 167.201 276.64 198.001C238.94 225.701 228.04 232.801 208.14 243.001C168.74 263.201 131.14 265.901 104.94 250.601C97.7399 246.401 86.8399 235.101 83.7399 228.601C76.6399 214.101 76.9399 197.101 84.3399 182.901C90.7399 170.501 101.74 162.101 117.64 157.301L125.14 155.101H118.14C102.84 155.001 90.1399 160.301 79.0399 171.401C49.3399 201.101 58.8399 249.501 98.7399 271.901C113.44 280.101 126.94 283.301 147.14 283.301C168.64 283.201 188.64 278.301 212.34 267.001C233.14 257.101 248.84 247.001 285.94 219.301C323.34 191.501 341.34 180.501 360.64 173.801C369.44 170.801 371.04 170.601 383.14 170.501C394.44 170.501 396.74 170.801 400.94 172.701C407.64 175.901 415.04 183.101 417.74 189.301C420.94 196.701 421.04 209.501 417.84 216.401C414.94 222.701 409.64 229.201 404.94 232.101C399.84 235.301 402.44 235.701 408.34 232.601C416.54 228.501 423.14 221.701 427.34 213.201C431.04 205.801 431.14 205.301 431.14 194.601C431.14 184.301 430.94 183.101 428.04 177.001C422.34 165.101 412.54 156.701 398.94 152.401C393.34 150.601 373.34 149.701 366.54 150.901Z" fill="url(#paint5_linear_151_5680)"/>
<path d="M366.54 150.901C340.54 155.701 318.54 167.201 276.64 198.001C238.94 225.701 228.04 232.801 208.14 243.001C168.74 263.201 131.14 265.901 104.94 250.601C97.7399 246.401 86.8399 235.101 83.7399 228.601C76.6399 214.101 76.9399 197.101 84.3399 182.901C90.7399 170.501 101.74 162.101 117.64 157.301L125.14 155.101H118.14C102.84 155.001 90.1399 160.301 79.0399 171.401C49.3399 201.101 58.8399 249.501 98.7399 271.901C113.44 280.101 126.94 283.301 147.14 283.301C168.64 283.201 188.64 278.301 212.34 267.001C233.14 257.101 248.84 247.001 285.94 219.301C323.34 191.501 341.34 180.501 360.64 173.801C369.44 170.801 371.04 170.601 383.14 170.501C394.44 170.501 396.74 170.801 400.94 172.701C407.64 175.901 415.04 183.101 417.74 189.301C420.94 196.701 421.04 209.501 417.84 216.401C414.94 222.701 409.64 229.201 404.94 232.101C399.84 235.301 402.44 235.701 408.34 232.601C416.54 228.501 423.14 221.701 427.34 213.201C431.04 205.801 431.14 205.301 431.14 194.601C431.14 184.301 430.94 183.101 428.04 177.001C422.34 165.101 412.54 156.701 398.94 152.401C393.34 150.601 373.34 149.701 366.54 150.901Z" fill="url(#paint6_linear_151_5680)"/>
<path d="M366.54 150.901C340.54 155.701 318.54 167.201 276.64 198.001C238.94 225.701 228.04 232.801 208.14 243.001C168.74 263.201 131.14 265.901 104.94 250.601C97.7399 246.401 86.8399 235.101 83.7399 228.601C76.6399 214.101 76.9399 197.101 84.3399 182.901C90.7399 170.501 101.74 162.101 117.64 157.301L125.14 155.101H118.14C102.84 155.001 90.1399 160.301 79.0399 171.401C49.3399 201.101 58.8399 249.501 98.7399 271.901C113.44 280.101 126.94 283.301 147.14 283.301C168.64 283.201 188.64 278.301 212.34 267.001C233.14 257.101 248.84 247.001 285.94 219.301C323.34 191.501 341.34 180.501 360.64 173.801C369.44 170.801 371.04 170.601 383.14 170.501C394.44 170.501 396.74 170.801 400.94 172.701C407.64 175.901 415.04 183.101 417.74 189.301C420.94 196.701 421.04 209.501 417.84 216.401C414.94 222.701 409.64 229.201 404.94 232.101C399.84 235.301 402.44 235.701 408.34 232.601C416.54 228.501 423.14 221.701 427.34 213.201C431.04 205.801 431.14 205.301 431.14 194.601C431.14 184.301 430.94 183.101 428.04 177.001C422.34 165.101 412.54 156.701 398.94 152.401C393.34 150.601 373.34 149.701 366.54 150.901Z" fill="url(#paint7_linear_151_5680)"/>
<path d="M366.54 150.901C340.54 155.701 318.54 167.201 276.64 198.001C238.94 225.701 228.04 232.801 208.14 243.001C168.74 263.201 131.14 265.901 104.94 250.601C97.7399 246.401 86.8399 235.101 83.7399 228.601C76.6399 214.101 76.9399 197.101 84.3399 182.901C90.7399 170.501 101.74 162.101 117.64 157.301L125.14 155.101H118.14C102.84 155.001 90.1399 160.301 79.0399 171.401C49.3399 201.101 58.8399 249.501 98.7399 271.901C113.44 280.101 126.94 283.301 147.14 283.301C168.64 283.201 188.64 278.301 212.34 267.001C233.14 257.101 248.84 247.001 285.94 219.301C323.34 191.501 341.34 180.501 360.64 173.801C369.44 170.801 371.04 170.601 383.14 170.501C394.44 170.501 396.74 170.801 400.94 172.701C407.64 175.901 415.04 183.101 417.74 189.301C420.94 196.701 421.04 209.501 417.84 216.401C414.94 222.701 409.64 229.201 404.94 232.101C399.84 235.301 402.44 235.701 408.34 232.601C416.54 228.501 423.14 221.701 427.34 213.201C431.04 205.801 431.14 205.301 431.14 194.601C431.14 184.301 430.94 183.101 428.04 177.001C422.34 165.101 412.54 156.701 398.94 152.401C393.34 150.601 373.34 149.701 366.54 150.901Z" fill="url(#paint8_linear_151_5680)"/>
<path d="M359.14 195.1C350.04 196.4 340.34 199.8 327.84 206.1C315.34 212.4 307.54 217.5 287.74 232.2C234.04 272.2 202.04 288.8 167.64 294.6C153.94 296.8 129.64 296.1 118.44 293.1C87.1399 284.6 65.2399 265.6 55.7399 238.7C52.3399 229.1 50.2399 216.6 50.7399 209.1C50.9399 206.4 50.8399 204.4 50.5399 204.8C49.1399 206.4 47.4399 216.1 46.9399 225C45.7399 245.4 53.1399 265.7 68.1399 283.4C79.6399 296.9 101.54 310 122.14 315.6C131.44 318.2 133.54 318.4 151.64 318.4C173.54 318.5 182.74 317 202.64 310.4C232.44 300.5 255.54 286 308.04 244.2C335.34 222.4 352.24 211.9 365.34 208.5C377.04 205.4 393.74 207.2 400.04 212.1C403.24 214.6 403.34 213.8 400.54 209.8C392.74 198.9 375.54 192.8 359.14 195.1Z" fill="black"/>
<path d="M359.14 195.1C350.04 196.4 340.34 199.8 327.84 206.1C315.34 212.4 307.54 217.5 287.74 232.2C234.04 272.2 202.04 288.8 167.64 294.6C153.94 296.8 129.64 296.1 118.44 293.1C87.1399 284.6 65.2399 265.6 55.7399 238.7C52.3399 229.1 50.2399 216.6 50.7399 209.1C50.9399 206.4 50.8399 204.4 50.5399 204.8C49.1399 206.4 47.4399 216.1 46.9399 225C45.7399 245.4 53.1399 265.7 68.1399 283.4C79.6399 296.9 101.54 310 122.14 315.6C131.44 318.2 133.54 318.4 151.64 318.4C173.54 318.5 182.74 317 202.64 310.4C232.44 300.5 255.54 286 308.04 244.2C335.34 222.4 352.24 211.9 365.34 208.5C377.04 205.4 393.74 207.2 400.04 212.1C403.24 214.6 403.34 213.8 400.54 209.8C392.74 198.9 375.54 192.8 359.14 195.1Z" fill="url(#paint9_linear_151_5680)"/>
<path d="M359.14 195.1C350.04 196.4 340.34 199.8 327.84 206.1C315.34 212.4 307.54 217.5 287.74 232.2C234.04 272.2 202.04 288.8 167.64 294.6C153.94 296.8 129.64 296.1 118.44 293.1C87.1399 284.6 65.2399 265.6 55.7399 238.7C52.3399 229.1 50.2399 216.6 50.7399 209.1C50.9399 206.4 50.8399 204.4 50.5399 204.8C49.1399 206.4 47.4399 216.1 46.9399 225C45.7399 245.4 53.1399 265.7 68.1399 283.4C79.6399 296.9 101.54 310 122.14 315.6C131.44 318.2 133.54 318.4 151.64 318.4C173.54 318.5 182.74 317 202.64 310.4C232.44 300.5 255.54 286 308.04 244.2C335.34 222.4 352.24 211.9 365.34 208.5C377.04 205.4 393.74 207.2 400.04 212.1C403.24 214.6 403.34 213.8 400.54 209.8C392.74 198.9 375.54 192.8 359.14 195.1Z" fill="url(#paint10_linear_151_5680)"/>
<path d="M359.14 195.1C350.04 196.4 340.34 199.8 327.84 206.1C315.34 212.4 307.54 217.5 287.74 232.2C234.04 272.2 202.04 288.8 167.64 294.6C153.94 296.8 129.64 296.1 118.44 293.1C87.1399 284.6 65.2399 265.6 55.7399 238.7C52.3399 229.1 50.2399 216.6 50.7399 209.1C50.9399 206.4 50.8399 204.4 50.5399 204.8C49.1399 206.4 47.4399 216.1 46.9399 225C45.7399 245.4 53.1399 265.7 68.1399 283.4C79.6399 296.9 101.54 310 122.14 315.6C131.44 318.2 133.54 318.4 151.64 318.4C173.54 318.5 182.74 317 202.64 310.4C232.44 300.5 255.54 286 308.04 244.2C335.34 222.4 352.24 211.9 365.34 208.5C377.04 205.4 393.74 207.2 400.04 212.1C403.24 214.6 403.34 213.8 400.54 209.8C392.74 198.9 375.54 192.8 359.14 195.1Z" fill="url(#paint11_linear_151_5680)"/>
<path d="M359.14 195.1C350.04 196.4 340.34 199.8 327.84 206.1C315.34 212.4 307.54 217.5 287.74 232.2C234.04 272.2 202.04 288.8 167.64 294.6C153.94 296.8 129.64 296.1 118.44 293.1C87.1399 284.6 65.2399 265.6 55.7399 238.7C52.3399 229.1 50.2399 216.6 50.7399 209.1C50.9399 206.4 50.8399 204.4 50.5399 204.8C49.1399 206.4 47.4399 216.1 46.9399 225C45.7399 245.4 53.1399 265.7 68.1399 283.4C79.6399 296.9 101.54 310 122.14 315.6C131.44 318.2 133.54 318.4 151.64 318.4C173.54 318.5 182.74 317 202.64 310.4C232.44 300.5 255.54 286 308.04 244.2C335.34 222.4 352.24 211.9 365.34 208.5C377.04 205.4 393.74 207.2 400.04 212.1C403.24 214.6 403.34 213.8 400.54 209.8C392.74 198.9 375.54 192.8 359.14 195.1Z" fill="url(#paint12_linear_151_5680)"/>
<path d="M84.1399 321.7C77.4399 339 54.6399 397.7 52.9399 401.7C52.1399 403.7 82.4399 403.5 90.1399 401.5C101.04 398.6 109.14 392 114.24 381.7C117.94 374.4 135.14 329.1 134.44 328.5C134.24 328.2 130.74 327.4 126.74 326.5C117.24 324.5 105.94 320.6 96.6399 316.1C92.5399 314.1 88.8399 312.4 88.5399 312.2C88.1399 312 86.2399 316.3 84.1399 321.7Z" fill="black"/>
<path d="M84.1399 321.7C77.4399 339 54.6399 397.7 52.9399 401.7C52.1399 403.7 82.4399 403.5 90.1399 401.5C101.04 398.6 109.14 392 114.24 381.7C117.94 374.4 135.14 329.1 134.44 328.5C134.24 328.2 130.74 327.4 126.74 326.5C117.24 324.5 105.94 320.6 96.6399 316.1C92.5399 314.1 88.8399 312.4 88.5399 312.2C88.1399 312 86.2399 316.3 84.1399 321.7Z" fill="url(#paint13_linear_151_5680)"/>
<path d="M84.1399 321.7C77.4399 339 54.6399 397.7 52.9399 401.7C52.1399 403.7 82.4399 403.5 90.1399 401.5C101.04 398.6 109.14 392 114.24 381.7C117.94 374.4 135.14 329.1 134.44 328.5C134.24 328.2 130.74 327.4 126.74 326.5C117.24 324.5 105.94 320.6 96.6399 316.1C92.5399 314.1 88.8399 312.4 88.5399 312.2C88.1399 312 86.2399 316.3 84.1399 321.7Z" fill="url(#paint14_linear_151_5680)"/>
<path d="M84.1399 321.7C77.4399 339 54.6399 397.7 52.9399 401.7C52.1399 403.7 82.4399 403.5 90.1399 401.5C101.04 398.6 109.14 392 114.24 381.7C117.94 374.4 135.14 329.1 134.44 328.5C134.24 328.2 130.74 327.4 126.74 326.5C117.24 324.5 105.94 320.6 96.6399 316.1C92.5399 314.1 88.8399 312.4 88.5399 312.2C88.1399 312 86.2399 316.3 84.1399 321.7Z" fill="url(#paint15_linear_151_5680)"/>
<path d="M84.1399 321.7C77.4399 339 54.6399 397.7 52.9399 401.7C52.1399 403.7 82.4399 403.5 90.1399 401.5C101.04 398.6 109.14 392 114.24 381.7C117.94 374.4 135.14 329.1 134.44 328.5C134.24 328.2 130.74 327.4 126.74 326.5C117.24 324.5 105.94 320.6 96.6399 316.1C92.5399 314.1 88.8399 312.4 88.5399 312.2C88.1399 312 86.2399 316.3 84.1399 321.7Z" fill="url(#paint16_linear_151_5680)"/>
<path d="M-0.000107467 527L40.3199 437.4H56.7039L97.1519 527H79.7439L45.0559 446.232H51.7119L17.1519 527H-0.000107467ZM18.5599 506.264L23.0399 493.208H71.4239L75.9039 506.264H18.5599ZM108.547 527V437.4H125.187V527H108.547ZM149.422 527V437.4H186.286C194.222 437.4 201.006 438.68 206.638 441.24C212.355 443.8 216.75 447.469 219.822 452.248C222.894 457.027 224.43 462.701 224.43 469.272C224.43 475.843 222.894 481.517 219.822 486.296C216.75 490.989 212.355 494.616 206.638 497.176C201.006 499.651 194.222 500.888 186.286 500.888H158.638L166.062 493.336V527H149.422ZM208.046 527L185.39 494.488H203.182L225.966 527H208.046ZM166.062 495.128L158.638 487.192H185.518C192.857 487.192 198.361 485.613 202.03 482.456C205.785 479.299 207.662 474.904 207.662 469.272C207.662 463.555 205.785 459.16 202.03 456.088C198.361 453.016 192.857 451.48 185.518 451.48H158.638L166.062 443.288V495.128ZM243.047 527V437.4H279.911C287.847 437.4 294.631 438.68 300.263 441.24C305.98 443.8 310.375 447.469 313.447 452.248C316.519 457.027 318.055 462.701 318.055 469.272C318.055 475.843 316.519 481.517 313.447 486.296C310.375 491.075 305.98 494.744 300.263 497.304C294.631 499.864 287.847 501.144 279.911 501.144H252.263L259.687 493.336V527H243.047ZM259.687 495.128L252.263 487.064H279.143C286.482 487.064 291.986 485.528 295.655 482.456C299.41 479.299 301.287 474.904 301.287 469.272C301.287 463.555 299.41 459.16 295.655 456.088C291.986 453.016 286.482 451.48 279.143 451.48H252.263L259.687 443.288V495.128ZM373.075 528.28C360.787 528.28 351.144 524.824 344.147 517.912C337.235 511 333.779 501.016 333.779 487.96V437.4H350.419V487.32C350.419 496.536 352.382 503.235 356.307 507.416C360.318 511.597 365.95 513.688 373.203 513.688C380.456 513.688 386.046 511.597 389.971 507.416C393.896 503.235 395.859 496.536 395.859 487.32V437.4H412.243V487.96C412.243 501.016 408.744 511 401.747 517.912C394.835 524.824 385.278 528.28 373.075 528.28ZM435.547 527V437.4H452.187V512.92H499.035V527H435.547ZM512.172 527V437.4H528.812V512.92H575.66V527H512.172Z" fill="white"/>
<defs>
<linearGradient id="paint0_linear_151_5680" x1="373.168" y1="402.5" x2="373.168" y2="0" gradientUnits="userSpaceOnUse">
<stop offset="0.259615" stop-color="#D609D7"/>
<stop offset="0.644231" stop-color="#9A46E8"/>
</linearGradient>
<linearGradient id="paint1_linear_151_5680" x1="187.825" y1="250.84" x2="187.825" y2="92.0004" gradientUnits="userSpaceOnUse">
<stop/>
<stop offset="1" stop-color="#7400FF"/>
</linearGradient>
<linearGradient id="paint2_linear_151_5680" x1="187.825" y1="250.84" x2="187.825" y2="92.0004" gradientUnits="userSpaceOnUse">
<stop stop-color="#E273E3"/>
<stop offset="1" stop-color="#7400FF"/>
</linearGradient>
<linearGradient id="paint3_linear_151_5680" x1="187.825" y1="250.84" x2="187.825" y2="92.0004" gradientUnits="userSpaceOnUse">
<stop offset="0.259615" stop-color="#D609D7"/>
<stop offset="0.923077" stop-color="#865CB9"/>
</linearGradient>
<linearGradient id="paint4_linear_151_5680" x1="187.825" y1="250.84" x2="187.825" y2="92.0004" gradientUnits="userSpaceOnUse">
<stop offset="0.259615" stop-color="#D609D7"/>
<stop offset="0.644231" stop-color="#9A46E8"/>
</linearGradient>
<linearGradient id="paint5_linear_151_5680" x1="246.396" y1="283.301" x2="246.396" y2="150.354" gradientUnits="userSpaceOnUse">
<stop/>
<stop offset="1" stop-color="#7400FF"/>
</linearGradient>
<linearGradient id="paint6_linear_151_5680" x1="246.396" y1="283.301" x2="246.396" y2="150.354" gradientUnits="userSpaceOnUse">
<stop stop-color="#E273E3"/>
<stop offset="1" stop-color="#7400FF"/>
</linearGradient>
<linearGradient id="paint7_linear_151_5680" x1="246.396" y1="283.301" x2="246.396" y2="150.354" gradientUnits="userSpaceOnUse">
<stop offset="0.259615" stop-color="#D609D7"/>
<stop offset="0.923077" stop-color="#865CB9"/>
</linearGradient>
<linearGradient id="paint8_linear_151_5680" x1="246.396" y1="283.301" x2="246.396" y2="150.354" gradientUnits="userSpaceOnUse">
<stop offset="0.259615" stop-color="#D609D7"/>
<stop offset="0.644231" stop-color="#9A46E8"/>
</linearGradient>
<linearGradient id="paint9_linear_151_5680" x1="224.68" y1="318.404" x2="224.68" y2="194.618" gradientUnits="userSpaceOnUse">
<stop/>
<stop offset="1" stop-color="#7400FF"/>
</linearGradient>
<linearGradient id="paint10_linear_151_5680" x1="224.68" y1="318.404" x2="224.68" y2="194.618" gradientUnits="userSpaceOnUse">
<stop stop-color="#E273E3"/>
<stop offset="1" stop-color="#7400FF"/>
</linearGradient>
<linearGradient id="paint11_linear_151_5680" x1="224.68" y1="318.404" x2="224.68" y2="194.618" gradientUnits="userSpaceOnUse">
<stop offset="0.259615" stop-color="#D609D7"/>
<stop offset="0.923077" stop-color="#865CB9"/>
</linearGradient>
<linearGradient id="paint12_linear_151_5680" x1="224.68" y1="318.404" x2="224.68" y2="194.618" gradientUnits="userSpaceOnUse">
<stop offset="0.259615" stop-color="#D609D7"/>
<stop offset="0.644231" stop-color="#9A46E8"/>
</linearGradient>
<linearGradient id="paint13_linear_151_5680" x1="93.6925" y1="403.104" x2="93.6925" y2="312.193" gradientUnits="userSpaceOnUse">
<stop/>
<stop offset="1" stop-color="#7400FF"/>
</linearGradient>
<linearGradient id="paint14_linear_151_5680" x1="93.6925" y1="403.104" x2="93.6925" y2="312.193" gradientUnits="userSpaceOnUse">
<stop stop-color="#E273E3"/>
<stop offset="1" stop-color="#7400FF"/>
</linearGradient>
<linearGradient id="paint15_linear_151_5680" x1="93.6925" y1="403.104" x2="93.6925" y2="312.193" gradientUnits="userSpaceOnUse">
<stop offset="0.259615" stop-color="#D609D7"/>
<stop offset="0.923077" stop-color="#865CB9"/>
</linearGradient>
<linearGradient id="paint16_linear_151_5680" x1="93.6925" y1="403.104" x2="93.6925" y2="312.193" gradientUnits="userSpaceOnUse">
<stop offset="0.259615" stop-color="#D609D7"/>
<stop offset="0.644231" stop-color="#9A46E8"/>
</linearGradient>
</defs>
</svg>
