<svg width="662" height="616" viewBox="0 0 662 616" fill="none" xmlns="http://www.w3.org/2000/svg">
<path d="M344.792 189.964C344.363 169.248 344.753 147.966 344.574 127.197C344.433 110.76 344.647 94.2003 344.55 77.7413C344.496 68.6853 347.903 55.88 349.508 46.5457C350.994 37.904 352.427 27.9281 354.78 19.5687C355.505 17.2781 357.035 15.6039 358.621 13.9473C365.933 6.31236 377.604 8.208 387.281 8.02553C394.102 7.89692 401.438 7.92383 408.321 8.07904C429.606 7.17132 428.013 29.9718 431.285 45.2391C433.645 56.246 436.19 67.828 436.467 79.005C436.463 85.6347 436.361 93.5643 436.811 100.051C470.643 98.9752 499.542 102.294 526.12 126.587C544.062 142.987 555.004 167.107 557.307 191.831C557.304 191.931 557.302 192.031 557.3 192.132C557.667 194.956 557.665 198.918 557.711 201.823C558.175 225.235 550.528 248.087 536.066 266.506C520.798 286.301 494.489 300.922 469.746 303.672C459.132 304.852 447.469 304.967 436.749 304.83L436.627 354.568C436.639 363.467 436.833 372.312 436.453 381.205C435.771 397.175 426.776 411.53 409.247 410.541C405.551 410.383 401.343 410.921 397.733 410.907C385.282 410.859 368.837 412.802 357.575 407.403C343.08 400.453 338.151 389.123 333.242 374.875C331.192 368.928 328.598 361.943 326.396 356.083C324.227 350.848 322.648 345.422 320.515 340.196C316.888 329.461 312.237 318.363 308.788 307.67C311.604 304.991 325.996 295.718 329.943 293.095C336.626 287.672 343.78 282.947 350.816 278.063C364.532 267.09 378.564 256.165 392.94 246.078C405.185 237.487 421.266 226.869 436.534 225.658C436.884 229.564 436.741 234.698 436.733 238.704L436.711 258.38C452.307 258.641 467.125 258.832 480.866 250.049C492.043 242.904 498.073 235.931 503.378 223.877C506.173 215.964 506.52 211.88 507.136 203.456C506.602 195.409 506.524 191.381 504.028 183.529C502.828 179.79 499.941 174.172 497.631 170.85C465.994 125.345 400.404 150.525 364.259 175.92C360.342 178.672 356.695 181.277 352.649 183.879C349.981 186.043 347.598 187.967 344.792 189.964ZM380.05 110.775C379.869 104.216 379.861 97.6543 380.028 91.0954C374.211 90.8751 365.77 90.7654 359.922 91.3989C359.311 91.4652 357.775 92.405 357.178 92.7728C356.978 95.4012 356.973 96.8411 357.094 99.4832C358.94 99.6806 361.664 99.8884 363.283 100.532C371.897 103.958 369.557 109.444 380.05 110.775ZM401.58 110.735C408.874 108.844 408.435 107.47 413.936 102.512C417.359 100.532 419.467 100.172 423.357 99.2449C423.672 96.4782 423.828 93.936 423.397 91.1569C418.798 90.7374 407.887 90.4597 403.267 90.9181L401.781 91.1576C401.114 92.2626 401.499 108.333 401.58 110.735Z" fill="url(#paint0_linear_126_1324)"/>
<path d="M350.816 278.063C352.442 280.202 360.074 301.265 361.627 305.564C365.037 314.997 369.548 325.981 372.963 335.396L389.134 378.347C392.291 386.584 394.764 394.861 399.438 402.338C402.156 406.688 408.2 409.178 409.247 410.541C405.551 410.383 401.343 410.921 397.733 410.907C385.282 410.859 368.837 412.802 357.575 407.403C343.08 400.453 338.151 389.123 333.242 374.875C331.192 368.928 328.598 361.943 326.396 356.083C324.227 350.848 322.648 345.422 320.515 340.196C316.888 329.461 312.237 318.363 308.788 307.67C311.604 304.991 325.996 295.718 329.943 293.095C336.626 287.672 343.78 282.947 350.816 278.063Z" fill="url(#paint1_linear_126_1324)"/>
<path d="M366.487 164.871C370.756 160.867 374.632 156.926 379.218 153.268C401.842 135.22 426.611 121.843 456.291 123.009C511.144 125.165 543.811 172.966 530.26 225.016C522.916 246.145 511.495 262.56 490.67 272.587C488.528 273.618 481.945 276.605 479.847 276.868C467.679 282.517 449.726 281.858 436.713 281.308C436.385 273.585 436.547 266.095 436.711 258.38C452.307 258.641 467.125 258.832 480.866 250.049C492.043 242.904 498.073 235.931 503.378 223.877C506.173 215.964 506.52 211.88 507.136 203.456C506.602 195.409 506.524 191.381 504.028 183.529C502.828 179.79 499.941 174.172 497.631 170.85C465.994 125.345 400.404 150.525 364.259 175.92C360.342 178.672 356.695 181.277 352.649 183.879C351.846 182.064 353.082 180.565 354.266 179.131C358.223 174.342 362.376 169.517 366.487 164.871Z" fill="url(#paint2_linear_126_1324)"/>
<path d="M344.792 189.964C344.363 169.248 344.753 147.966 344.574 127.197C344.433 110.76 344.647 94.2003 344.55 77.7413C344.496 68.6853 347.903 55.88 349.508 46.5457C350.994 37.904 352.427 27.9281 354.78 19.5687C355.505 17.2781 357.035 15.6039 358.621 13.9473C365.933 6.31236 377.604 8.208 387.281 8.02553C394.102 7.89692 401.438 7.92383 408.321 8.07904C400.953 9.18552 393.839 8.49801 386.463 8.90262C382.81 9.10301 383.803 18.8126 383.778 21.4018C383.724 27.073 384.233 32.6893 384.647 38.336C384.815 40.4414 384.471 43.1016 384.921 45.1761C386.581 50.2281 384.631 57.3669 384.82 62.7192C384.916 65.4435 387.265 69.4806 387.252 71.5416L386.501 72.2461L387.098 72.9112L386.489 74.0272L386.666 74.3484C388.879 74.8265 395.69 73.4765 396.574 74.1831C386.915 74.7993 377.976 75.0429 368.504 72.2729C364.807 71.1917 361.948 69.6643 358.625 68.5712C371.559 78.9533 385.603 79.7722 401.419 77.8802L401.529 78.062C399.987 78.4003 395.943 78.7763 395.101 79.2098C394.208 81.3702 393.546 84.0073 392.907 86.2917C394.152 86.2951 400.395 86.2343 401.215 86.4054C386.582 86.8015 371.9 86.6073 357.166 86.9792C357.139 88.2552 356.981 91.6946 357.178 92.7728C356.978 95.4012 356.973 96.8411 357.094 99.4832C357.095 101.747 357.018 104.605 357.196 106.814C357.182 112.078 356.979 161.367 357.624 162.35C357.686 162.061 357.817 161.285 357.943 161.067C358.408 160.273 358.71 159.362 359.437 159.288C362.622 158.966 369.699 160.18 371.946 157.98C372.032 157.896 372.596 157.657 372.79 157.572L373.231 157.766C371.151 159.46 367.819 162.094 366.449 164.292L366.487 164.871C362.376 169.517 358.223 174.342 354.266 179.131C353.082 180.565 351.846 182.064 352.649 183.879C349.981 186.043 347.598 187.967 344.792 189.964Z" fill="#1A435C"/>
<path d="M357.196 106.814C357.499 105.042 357.193 105.201 358.2 104.059L359.013 103.811C359.572 104.127 360.114 104.433 360.219 105.32C361.982 120.187 361.482 135.608 360.47 150.523C360.284 153.263 357.857 159.405 357.943 161.067C357.817 161.285 357.686 162.061 357.624 162.35C356.979 161.367 357.182 112.078 357.196 106.814Z" fill="#357A88"/>
<path d="M201.464 183.158L216.703 143.569C219.264 136.823 223.129 125.47 226.168 119.567C227.834 116.261 230.039 113.256 232.693 110.674C245.507 98.1684 262.992 100.351 279.603 100.547C280.844 100.562 281.238 100.34 282.073 100.919C284.675 107.198 286.902 113.7 289.302 120.069L299.428 146.582C300.234 148.729 304.884 160.1 305.008 161.763C309.078 170.786 312.847 181.955 316.433 191.277C317.943 195.201 320.813 202.802 321.737 206.494C315.629 211.862 307.168 216.761 300.421 221.565C297.608 223.709 282.183 233.893 279.217 235.203C274.252 223.127 270.048 211.16 265.633 198.867C262.865 191.159 259.868 183.763 257.226 175.977C253.744 187.99 248.005 201.367 243.83 213.332C243.242 215.019 239.188 226.29 238.672 227.165C238.046 229.168 237.572 230.726 236.737 232.656C236.127 234.386 234.045 239.885 233.664 241.404C232.324 245.078 229.627 253.575 227.816 256.444C224.731 257.844 215.63 259.274 212.382 258.935C209.672 259.309 205.075 259.138 202.301 259.01C193.599 258.847 183.048 257.078 175.043 253.924C177.182 246.443 181.524 236.236 184.359 228.696L201.464 183.158Z" fill="url(#paint3_linear_126_1324)"/>
<path d="M201.464 183.158L216.703 143.569C219.264 136.823 223.129 125.47 226.168 119.567C227.834 116.261 230.039 113.256 232.693 110.674C245.507 98.1684 262.992 100.351 279.603 100.547L279.82 101.317C277.779 103.922 273.495 106.754 270.855 109.06C266.087 113.225 259.682 117.993 256.026 123.268C244.643 139.69 238.903 160.665 231.668 179.172C227.965 188.645 224.274 198.365 220.954 207.74L220.544 207.492C221.066 205.676 221.818 203.196 222.539 201.451L222.687 201.1C218.228 198.43 201.25 190.402 202.48 184.462C202.105 183.368 202.432 183.788 201.464 183.158Z" fill="url(#paint4_linear_126_1324)"/>
<path d="M175.043 253.924C177.182 246.443 181.524 236.236 184.359 228.696L201.464 183.158C202.432 183.788 202.105 183.368 202.48 184.462C201.25 190.402 218.228 198.43 222.687 201.1L222.539 201.451C221.818 203.196 221.066 205.676 220.544 207.492L220.954 207.74C220.234 210.569 218.643 214.128 217.647 216.963C215.215 223.886 212.279 230.875 209.944 237.797C208.667 240.281 202.752 256.384 202.301 259.01C193.599 258.847 183.048 257.078 175.043 253.924Z" fill="#1A435C"/>
<path d="M209.944 237.797C209.602 241.445 204.118 253.868 203.021 258.47C205.963 257.505 206.968 258.337 209.856 258.521C210.637 258.386 212.96 258.473 213.454 258.154C216.778 256.007 218.151 254.701 222.462 254.681C223.585 254.675 223.508 253.81 224.103 252.985C224.863 251.933 224.932 252.892 226.235 252.742L226.817 251.679C225.755 249.074 228.015 247.575 229.444 245.541C230.825 243.575 231.47 242.528 233.664 241.404C232.324 245.078 229.627 253.575 227.816 256.444C224.731 257.844 215.63 259.274 212.382 258.935C209.672 259.309 205.075 259.138 202.301 259.01C202.752 256.384 208.667 240.281 209.944 237.797Z" fill="#102B49"/>
<path d="M236.737 232.656L236.09 231.314C236.152 230.154 237.636 227.619 238.672 227.165C238.046 229.168 237.572 230.726 236.737 232.656Z" fill="#102B49"/>
<path d="M307.536 462.191C313.768 461.713 324.389 462.028 330.913 462.048C342.898 462.083 355.426 461.924 367.36 462.227C374.743 462.432 385.227 463.417 391.816 466.828C392.408 467.053 393.513 467.434 394.036 467.699C395.427 468.346 398.875 469.897 399.913 470.979C400.701 471.452 401.761 472.024 402.419 472.608C403.28 473.278 404.13 473.961 404.971 474.657C406.114 475.781 408.062 477.594 409.053 478.76L409.315 478.822C424.626 496.354 423.886 526.778 406.35 542.643C392.701 554.992 373.46 556.104 355.996 556.185C348.524 556.219 340.067 556.508 332.57 555.94C332.335 569.23 332.306 582.524 332.483 595.816C325.065 595.819 314.748 595.972 307.522 595.598C307.229 590.484 307.458 583.132 307.473 577.868L307.55 545.289C307.597 517.663 307.216 489.774 307.536 462.191ZM332.557 483.444C332.389 493.358 332.345 503.274 332.425 513.189C332.416 519.88 332.232 527.644 332.588 534.244L355.702 534.299C361.178 534.308 368.049 534.529 373.321 533.608C376.855 532.972 380.265 531.772 383.419 530.055C389.625 525.481 393.058 521.264 394.28 513.335C397.21 494.332 382.994 483.822 365.207 483.496C357.036 483.346 348.189 483.388 339.753 483.335L332.557 483.444Z" fill="url(#paint5_linear_126_1324)"/>
<path d="M409.053 478.76L407.958 478.606C408.493 481.728 409.876 483.502 410.272 485.663L409.274 486.173L408.69 485.962L408.266 486.138C407.341 485.638 406.915 484.808 405.893 484.176C404.358 483.229 403.076 484.54 402.441 484.504C400.263 484.383 398.107 480.828 396.263 479.805C394.498 478.826 392.172 479.279 390.619 477.968C387.696 475.691 385.258 473.478 382.081 471.551C379.506 469.989 377.308 469.939 374.819 468.731C374.395 468.525 374.486 468.252 374.416 467.711L374.846 467.244C377.118 467.043 376.779 466.848 378.543 465.576C379.167 465.125 381.31 467.269 381.62 467.266C382.194 467.26 383.838 467.242 384.511 467.234C386.406 471.08 391.247 468.709 394.811 471.742C396.365 473.065 395.716 472.638 398.022 472.975L398.078 473.761L398.524 473.882L399.911 472.92L400.042 473.775C401.418 474.914 401.89 475.134 403.685 475.108L403.736 474.729C402.864 473.864 402.864 473.785 402.419 472.608C403.28 473.278 404.13 473.961 404.971 474.657C406.114 475.781 408.062 477.594 409.053 478.76Z" fill="#357A88"/>
<path d="M367.36 462.227C374.743 462.432 385.227 463.417 391.816 466.828C391.674 466.836 385.381 466.314 385.422 466.336L385.485 465.175L384.482 465.068C383.559 465.518 383.007 466.035 382.128 465.445L382.48 464.344C381.441 464.003 377.096 465.082 374.548 463.694C373.326 463.029 369.105 463.691 367.36 462.227Z" fill="#357A88"/>
<path d="M394.036 467.699C395.427 468.346 398.875 469.897 399.913 470.979C399.208 471.186 399.455 470.975 398.91 470.984C396.258 471.029 395.001 469.933 394.036 467.699Z" fill="#357A88"/>
<path d="M66.3018 462.121C69.5133 461.655 74.2392 461.779 77.5685 461.783C82.7182 461.762 87.868 461.802 93.0167 461.902C94.8519 464.983 97.17 470.56 98.768 474.038L109.8 498.197L134.107 550.688C138.429 560.052 142.952 570.878 147.547 579.981C149.744 584.751 153.122 591.282 154.796 595.957C150.49 595.953 129.866 596.394 127.168 595.154C127.023 594.559 124.572 589.08 124.185 588.145C121.045 580.554 117.527 573.121 114.219 565.597C110.43 565.498 106.536 565.421 102.751 565.498C83.6819 565.886 64.259 565.014 45.2327 565.556C43.4183 568.867 42.0582 572.764 40.5257 576.263L32.072 595.474C24.1429 596.556 12.2511 595.129 5.02979 596.039C9.86999 586.108 14.7706 574.843 19.4315 564.687L48.4795 501.076L59.2955 477.314C61.1629 473.124 64.0541 465.82 66.3018 462.121ZM54.231 544.973C62.7487 544.815 70.9572 544.942 79.4368 544.893C88.0088 544.811 96.5813 544.789 105.154 544.827L86.3778 502.603C84.8504 499.17 83.3758 495.713 81.9544 492.235C81.6548 491.504 79.9502 487.162 79.6381 486.64C74.6937 498.487 69.6175 510.28 64.4104 522.014C61.4921 528.771 57.4666 538.626 54.231 544.973Z" fill="#CAD3DD"/>
<path d="M108.462 225.694C108.754 223.129 110.313 213.741 111.856 211.977C112.329 212.818 111.046 216.5 111.03 217.855C111.002 220.231 111.214 222.573 111.389 224.928C112.125 230.792 113.032 237.916 114.752 243.579C119.588 259.495 130.242 274.205 143.479 284.255C166.146 301.465 196.381 306.87 224.209 303.439C234.958 302.114 245.657 299.004 255.862 295.537C259.104 294.436 265.424 291.389 268.092 290.681C279.728 285.78 292.729 278.08 303.396 271.367C307.368 268.867 317.283 261.648 320.644 260.016C322.892 260.119 332.772 252.015 335.888 250.104C336.878 250.431 336.499 250.443 337.445 250.298L337.569 249.522L338.066 249.391L338.616 250.506L338.289 249.389L338.95 249.715L338.719 249.455L338.969 249.717C338.619 250.803 337.339 251.894 336.49 252.756L336.521 253.389C338.18 253.369 340.332 255.594 342.043 255.985C344.074 256.449 347.674 253.752 349.127 252.716L349.604 253C352.154 251.654 361.273 243.635 362.745 243.315C361.673 245.083 361.331 244.025 360.177 245.537L360.46 246.218C361.12 246.692 369.492 247.61 371.293 248.115C371.842 249.155 371.711 248.729 371.491 250.087C370.048 252.325 328.819 283.338 323.735 286.689C319.972 289.168 303.547 300.121 299.265 302.531C264.966 321.833 226.911 332.498 187.597 324.652C161.146 319.372 137.228 305.094 121.804 282.66C110.454 266.152 104.744 245.496 108.462 225.694Z" fill="url(#paint6_linear_126_1324)"/>
<path d="M108.462 225.694C108.754 223.129 110.313 213.741 111.856 211.977C112.329 212.818 111.046 216.5 111.03 217.855C111.002 220.231 111.214 222.573 111.389 224.928C110.019 224.476 110.907 221.441 110.134 220.594C109.441 221.674 109.64 224.551 108.922 226.037L108.462 225.694Z" fill="#0A0A0C"/>
<path d="M441.49 493.828C448.011 493.948 454.52 493.911 461.036 493.92C461.984 493.921 464.321 493.91 464.854 494.619C466.479 497.078 465.682 501.453 465.642 504.276C465.389 516.009 466.3 528.397 465.801 540.084C465.045 557.804 468.063 576.389 489.789 576.257C502.174 576.541 513.24 568.814 515.749 556.42C517.39 548.308 516.888 539.916 516.909 531.651L516.908 493.896C523.276 494.317 534.283 493.948 541.019 493.894C541.544 503.61 540.986 515.62 541.107 525.668C541.385 543.865 540.71 562.23 541.047 580.448C541.14 585.497 541.181 590.932 540.937 595.949C537.89 595.995 534.53 595.765 531.423 595.735C527.235 595.694 522.753 595.904 518.622 595.538C518.38 591.535 518.385 586.927 518.319 582.896C509.538 593.71 499.328 597.377 485.493 597.643C465.214 598.033 447.795 588.163 443.243 567.457C440.674 555.771 441.43 544.031 441.467 532.093L441.49 493.828Z" fill="url(#paint7_linear_126_1324)"/>
<path d="M349.238 225.545C308.828 257.042 261.602 290.835 208.131 291.518C183.526 292.066 160.902 284.936 142.844 267.924C117.336 243.894 113.625 203.834 139.753 178.828C148.532 170.426 161.025 163.477 173.475 163.546C175.772 165.122 178.535 162.849 180.058 164.65C165.214 168.858 152.625 175.536 145.246 189.718C131.503 216.133 141.639 246.027 167.665 259.807C195.984 274.799 229.462 268.556 257.519 256.734L257.898 257.089C262.352 255.851 267.209 252.269 271.103 250.973L271.573 251.597C271.023 253.568 270.077 254.202 269.728 256.565C270.076 257.685 272.406 259.879 273.368 261.053C272.303 261.481 267.766 263.555 267.039 264.206C268.596 264.348 272.692 261.979 274.321 261.153C291.475 252.403 307.827 242.162 323.187 230.548C323.617 231.168 323.924 231.857 324.259 232.535C326.713 233.14 329.122 234.121 331.53 234.544C338.452 235.76 342.942 228.103 348.715 225.261L349.238 225.545Z" fill="url(#paint8_linear_126_1324)"/>
<path d="M356.161 192.209C386.879 172.063 417.56 152.635 456.187 159.863C459.965 160.935 463.68 162.218 467.315 163.706C491.118 173.311 499.148 204.938 485.849 225.717C483.467 229.44 479.77 232.747 477.646 236.308C474.19 237.122 462.56 244.648 459.335 244.158C461.255 242.537 465.059 240.85 466.315 239.764C469.851 236.705 474.701 230.478 476.931 226.408C476.37 224.089 471.437 222.427 473.133 218.91L473.728 218.955C474.999 220.033 475.187 220.561 475.996 221.993C477.88 219.002 479.012 217.121 480.583 213.928C480.915 211.385 480.888 210.648 480.51 208.199C478.274 203.887 476.853 202.185 477.083 197.158C477.182 194.23 474.662 191.425 472.759 189.384C465.457 181.553 456.194 177.766 445.519 177.476C412.872 176.586 374.608 206.89 349.238 225.545L348.715 225.261C342.942 228.103 338.452 235.76 331.53 234.544C329.122 234.121 326.713 233.14 324.259 232.535C323.924 231.857 323.617 231.168 323.187 230.548C307.827 242.162 291.475 252.403 274.321 261.153C272.692 261.979 268.596 264.348 267.039 264.206C267.766 263.555 272.303 261.481 273.368 261.053C272.406 259.879 270.076 257.685 269.728 256.565C270.077 254.202 271.023 253.568 271.573 251.597L271.103 250.973C267.209 252.269 262.352 255.851 257.898 257.089L257.519 256.734C260.845 254.837 264.827 253.404 268.287 251.623C295.667 237.53 319.76 218.257 344.479 200.267C345.395 197.588 346.944 195.383 347.215 192.506C347.268 191.939 347.42 191.634 347.677 191.145C348.631 191.534 348.729 192.058 349.447 193.066C351.847 192.835 353.796 192.638 356.161 192.209Z" fill="url(#paint9_linear_126_1324)"/>
<path d="M344.479 200.267C345.395 197.588 346.944 195.383 347.215 192.506C347.268 191.939 347.42 191.634 347.677 191.145C348.631 191.534 348.729 192.058 349.447 193.066C351.847 192.835 353.796 192.638 356.161 192.209C355.403 193.389 346.135 199.411 344.479 200.267Z" fill="#FEFEFE"/>
<path d="M480.583 213.928C481.033 217.35 478.823 223.999 477.084 226.777L476.931 226.408C476.37 224.089 471.437 222.427 473.133 218.91L473.728 218.955C474.999 220.033 475.187 220.561 475.996 221.993C477.88 219.002 479.012 217.121 480.583 213.928Z" fill="#FEFEFE"/>
<path d="M477.083 197.158L477.61 196.689C479.322 198.612 480.788 205.604 480.51 208.199C478.274 203.887 476.853 202.185 477.083 197.158Z" fill="#FEFEFE"/>
<path d="M148.551 319.937C155.225 322.897 160.649 326.03 167.814 328.867C178.267 333.006 185.123 333.656 195.51 336.15C195.385 336.55 195.255 336.947 195.118 337.342C192.58 344.675 189.858 352.325 187.097 359.72C182.794 371.246 178.199 386.037 171.344 396.156C167.91 401.227 161.965 405.248 156.552 407.841C146.764 411.965 124.231 411.361 113.093 411.056C116.078 404.269 119.088 395.858 121.842 388.844L140.321 341.408C142.894 334.788 145.684 326.131 148.551 319.937Z" fill="#102B49"/>
<path d="M622.914 455.731C629.519 455.733 641.134 455.443 647.386 455.991C647.89 461.295 647.699 466.456 647.721 471.768C647.76 481.505 647.513 491.192 647.609 500.93V556.231C647.642 567.21 648.157 582.057 647.642 592.783C647.561 593.95 647.536 594.214 647.236 595.336C645.903 596.046 625.896 595.731 622.954 595.595C622.63 589.413 622.868 582.061 622.874 575.797L622.775 547.394L622.914 455.731Z" fill="url(#paint10_linear_126_1324)"/>
<path d="M569.824 455.752C577.889 455.746 586.195 455.669 594.243 455.818C594.739 461.531 594.436 471.928 594.421 477.938L594.348 518.92C594.418 536.989 594.389 555.057 594.26 573.125C594.194 579.711 594.555 588.437 594.023 594.718C593.82 595.174 593.831 595.073 593.458 595.453C590.106 595.889 573.296 595.817 569.985 595.428C569.365 591.459 569.773 583.859 569.801 579.476L569.886 552.093L569.824 455.752Z" fill="url(#paint11_linear_126_1324)"/>
<path d="M279.853 492.663C282.34 492.335 283.464 492.441 285.993 492.603C286.499 498.316 286.12 507.119 286.15 513.087C286.055 513.742 285.952 514.899 285.072 514.953C275.591 515.535 267.608 514.428 259.629 521.147C255.635 524.576 252.682 529.055 251.107 534.077C249.105 540.439 248.872 550.305 248.82 556.936C248.784 564.591 248.804 572.246 248.882 579.901C248.928 585.124 249.11 590.815 248.698 595.982C242.471 595.766 230.132 596.151 224.891 595.602C224.572 592.889 224.547 591.038 224.53 588.286L224.591 526.443C224.588 516.752 224.211 503.49 224.793 494C232.089 493.694 240.576 493.867 247.928 493.906C248.038 499.014 247.843 504.095 247.683 509.199C256.66 497.367 265.163 494.174 279.853 492.663Z" fill="url(#paint12_linear_126_1324)"/>
<path d="M169.828 493.917C177.156 493.594 186.82 493.825 194.254 494.007C194.552 497.325 194.42 502.462 194.428 505.925L194.499 525.517L194.47 593.944L194.385 595.209L193.912 595.611C190.632 595.915 173.093 595.881 169.945 595.459C169.563 591.248 169.742 585.493 169.761 581.121L169.853 556.943L169.952 514.282C169.952 507.47 169.676 500.737 169.828 493.917Z" fill="#CAD3DD"/>
<path d="M457.465 203.781C458.256 203.326 460.231 202.196 460.734 201.754C465.424 197.634 466.046 195.612 470.751 201.388C471.619 202.453 473.388 204.207 474.402 205.57C474.116 206.387 473.15 209.01 473.191 209.74C473.326 212.119 475.478 214.497 474.303 216.792C473.075 217.251 473.698 217.171 472.355 216.982C471.228 216.208 471.055 215.753 470.287 214.569C467.144 217.573 466.212 222.037 463.25 223.056C458.492 218.478 455.49 216.768 448.903 215.635C420.445 210.738 396.761 230.894 375.733 246.848C374.416 247.848 372.83 249.246 371.491 250.087C371.711 248.729 371.842 249.155 371.293 248.115C369.492 247.61 361.12 246.692 360.46 246.218L360.177 245.537C361.331 244.025 361.673 245.083 362.745 243.315C361.273 243.635 352.154 251.654 349.604 253L349.127 252.716C347.674 253.752 344.074 256.449 342.043 255.985C340.332 255.594 338.18 253.369 336.521 253.389L336.49 252.756C337.339 251.894 338.619 250.803 338.969 249.717L338.719 249.455L338.95 249.715L338.289 249.389L338.616 250.506L338.066 249.391L337.569 249.522L337.445 250.298C336.499 250.443 336.878 250.431 335.888 250.104C332.772 252.015 322.892 260.119 320.644 260.016C323.123 257.858 330.683 252.937 333.699 250.726C343.029 243.888 353.491 236.197 363.128 229.841C383.126 216.65 409.317 200.329 434.229 203.128C436.879 203.378 439.422 203.807 441.975 204.533C444.112 205.141 448.234 207.628 450.209 207.72C452.35 207.711 452.489 207.919 454.367 208.76C455.919 206.741 456.306 206.063 457.465 203.781ZM462.805 221.336C463.994 221.45 464.324 221.5 464.721 220.434C464.019 218.439 458.992 214.327 457.139 213.13C457.255 213.997 461.473 218.734 462.805 221.336Z" fill="url(#paint13_linear_126_1324)"/>
<path d="M457.139 213.13C458.992 214.327 464.019 218.439 464.721 220.434C464.324 221.5 463.994 221.45 462.805 221.336C461.473 218.734 457.255 213.997 457.139 213.13Z" fill="#FEFEFE" fill-opacity="0.0117647"/>
<path d="M457.465 203.781C458.256 203.326 460.231 202.196 460.734 201.754C465.424 197.634 466.046 195.612 470.751 201.388C471.619 202.453 473.388 204.207 474.402 205.57C474.116 206.387 473.15 209.01 473.191 209.74C473.326 212.119 475.478 214.497 474.303 216.792C473.075 217.251 473.698 217.171 472.355 216.982C471.228 216.208 471.055 215.753 470.287 214.569C467.144 217.573 466.212 222.037 463.25 223.056C462.926 222.252 462.83 222.184 462.805 221.336C463.994 221.45 464.324 221.5 464.721 220.434C464.019 218.439 458.992 214.327 457.139 213.13C455.761 212.437 451.455 209.287 450.13 208.286L450.209 207.72C452.35 207.711 452.489 207.919 454.367 208.76C455.919 206.741 456.306 206.063 457.465 203.781Z" fill="#FEFEFE"/>
<path d="M179.174 451.031C192.227 449.398 201.999 459.995 195.021 472.89C192.816 476.964 188.251 478.449 183.926 479.399C179.868 479.665 176.236 479.393 172.696 477.16C166.138 473.022 163.913 463.761 168.44 457.304C171.22 453.338 174.584 451.827 179.174 451.031Z" fill="#CAD3DD"/>
<path d="M404.971 474.657L405.58 474.221C405.245 473.506 404.893 473.062 404.439 472.428L404.739 472.327C405.842 473.388 410.187 477.399 410.574 478.427C409.934 478.53 409.84 478.448 409.315 478.822L409.053 478.76C408.062 477.594 406.114 475.781 404.971 474.657Z" fill="#0A0A0C" fill-opacity="0.0117647"/>
<path d="M173.475 163.546C177.137 162.899 183.628 163.428 187.504 163.62C184.856 164.2 182.739 164.385 180.058 164.65C178.535 162.849 175.772 165.122 173.475 163.546Z" fill="#0A0A0C" fill-opacity="0.988235"/>
<path d="M207.403 525.665C208.129 525.537 207.76 525.504 208.503 525.997L208.593 526.749C208.093 526.663 207.836 526.16 207.403 525.665Z" fill="#0A0A0C" fill-opacity="0.0745098"/>
<defs>
<linearGradient id="paint0_linear_126_1324" x1="373.91" y1="183.751" x2="515.887" y2="101.842" gradientUnits="userSpaceOnUse">
<stop stop-color="#1A475F"/>
<stop offset="1" stop-color="#41A0A5"/>
</linearGradient>
<linearGradient id="paint1_linear_126_1324" x1="357.178" y1="406.743" x2="376.285" y2="347.674" gradientUnits="userSpaceOnUse">
<stop stop-color="#6E3C2A"/>
<stop offset="1" stop-color="#BB8060"/>
</linearGradient>
<linearGradient id="paint2_linear_126_1324" x1="418.669" y1="129.497" x2="483.39" y2="275.15" gradientUnits="userSpaceOnUse">
<stop stop-color="#9A664E"/>
<stop offset="1" stop-color="#D09A7F"/>
</linearGradient>
<linearGradient id="paint3_linear_126_1324" x1="197.115" y1="183.608" x2="307.298" y2="174.927" gradientUnits="userSpaceOnUse">
<stop stop-color="#051A3D"/>
<stop offset="1" stop-color="#347D89"/>
</linearGradient>
<linearGradient id="paint4_linear_126_1324" x1="225.892" y1="201.709" x2="252.055" y2="94.8134" gradientUnits="userSpaceOnUse">
<stop stop-color="#276778"/>
<stop offset="1" stop-color="#46A2AA"/>
</linearGradient>
<linearGradient id="paint5_linear_126_1324" x1="304.818" y1="592.767" x2="382.306" y2="461.187" gradientUnits="userSpaceOnUse">
<stop stop-color="#0D2545"/>
<stop offset="1" stop-color="#2F7483"/>
</linearGradient>
<linearGradient id="paint6_linear_126_1324" x1="168.268" y1="324.386" x2="285.761" y2="178.971" gradientUnits="userSpaceOnUse">
<stop stop-color="#112848"/>
<stop offset="1" stop-color="#265866"/>
</linearGradient>
<linearGradient id="paint7_linear_126_1324" x1="466.61" y1="593.943" x2="520.697" y2="484.846" gradientUnits="userSpaceOnUse">
<stop stop-color="#193F59"/>
<stop offset="1" stop-color="#33828C"/>
</linearGradient>
<linearGradient id="paint8_linear_126_1324" x1="126.427" y1="244.394" x2="327.09" y2="195.446" gradientUnits="userSpaceOnUse">
<stop stop-color="#0F2442"/>
<stop offset="1" stop-color="#2B5F6F"/>
</linearGradient>
<linearGradient id="paint9_linear_126_1324" x1="381.766" y1="255.561" x2="377.473" y2="161.566" gradientUnits="userSpaceOnUse">
<stop stop-color="#336171"/>
<stop offset="1" stop-color="#43A8AD"/>
</linearGradient>
<linearGradient id="paint10_linear_126_1324" x1="609.933" y1="589.327" x2="659.956" y2="462.017" gradientUnits="userSpaceOnUse">
<stop stop-color="#22576A"/>
<stop offset="1" stop-color="#42ACB0"/>
</linearGradient>
<linearGradient id="paint11_linear_126_1324" x1="549.119" y1="582.065" x2="614.17" y2="468.729" gradientUnits="userSpaceOnUse">
<stop stop-color="#1C4961"/>
<stop offset="1" stop-color="#3EA2A7"/>
</linearGradient>
<linearGradient id="paint12_linear_126_1324" x1="207.242" y1="560.317" x2="295.794" y2="513.342" gradientUnits="userSpaceOnUse">
<stop stop-color="#CAD3DD"/>
<stop offset="1" stop-color="#1C455E"/>
</linearGradient>
<linearGradient id="paint13_linear_126_1324" x1="388.448" y1="215.047" x2="404.716" y2="248.352" gradientUnits="userSpaceOnUse">
<stop stop-color="#46A5AD"/>
<stop offset="1" stop-color="#284D5E"/>
</linearGradient>
</defs>
</svg>
