<svg width="904" height="654" viewBox="0 0 904 654" fill="none" xmlns="http://www.w3.org/2000/svg">
<path d="M485.569 2.77127C478.534 6.71496 476.722 10.7652 473.418 29.3113C471.926 38.0513 469.687 49.5626 468.622 54.892C466.49 65.3374 466.277 73.9709 466.383 153.164L466.49 192.815L476.083 185.886C490.792 175.334 498.999 170.325 512.215 163.717C549.094 145.171 584.374 141.973 608.569 154.763C636.069 169.366 647.047 205.605 632.978 235.556C629.14 243.869 617.096 255.594 608.25 259.857C599.19 264.121 587.359 266.466 574.888 266.466H564.869L564.229 254.315C563.803 247.707 563.803 240.032 564.123 237.474C564.549 234.81 564.336 232.358 563.91 232.038C563.377 231.719 559.326 232.465 554.956 233.531C540.248 237.261 524.26 247.6 482.478 280.215C462.653 295.67 431.423 317.627 429.185 317.627C427.266 317.627 428.012 320.185 435.153 339.584C438.991 350.029 445.706 368.362 449.969 380.087C454.339 391.918 459.029 403.962 460.521 406.84C464.145 414.088 471.926 421.442 480.239 425.599L487.274 429.01H514.987C539.928 429.01 543.019 428.797 546.43 426.985C552.718 423.68 559.113 416.752 561.565 410.357C563.91 404.708 564.016 403.003 564.123 369.321C564.123 349.923 564.229 330.204 564.336 325.301L564.549 316.561H577.659C592.688 316.561 607.29 314.43 618.802 310.592C636.602 304.624 656 291.833 667.298 278.723C687.763 254.848 697.356 219.674 691.92 188.445C687.656 163.93 678.49 145.49 662.395 129.076C640.972 107.332 613.046 96.9935 575.208 96.9935H564.016L563.697 79.9397C563.483 65.9769 562.844 60.1147 560.392 48.177C558.687 40.1831 556.555 28.9915 555.596 23.449C553.677 12.4706 550.8 6.28862 546.11 2.77127C543.232 0.639546 541.527 0.53296 516.799 0.213201L490.472 2.87369e-05L485.569 2.77127ZM503.795 98.5923C503.795 108.505 503.795 108.718 501.344 108.718C499.851 108.718 496.334 106.586 492.71 103.389C489.406 100.404 485.675 98.0594 484.61 98.0594C480.453 98.0594 479.28 96.8869 479.28 92.6235V88.4666H491.538H503.795V98.5923ZM550.693 92.7301C550.693 96.6738 550.48 96.8869 546.749 97.6331C544.191 98.0594 540.994 100.085 537.903 102.962C533 107.546 528.097 110.21 526.818 109.038C525.965 108.185 525.965 99.6582 526.818 93.3696L527.564 88.4666H539.075H550.693V92.7301Z" fill="url(#paint0_linear_159_570)"/>
<path d="M366.618 99.2308C355.427 101.363 344.875 109.143 340.078 118.523C338.693 121.294 335.176 129.714 332.298 137.175C329.526 144.743 323.025 161.584 318.015 174.8C313.006 188.017 304.585 210.081 299.363 223.83C294.033 237.58 288.704 251.649 287.425 255.06C285.719 259.217 285.293 261.562 286.039 262.308C286.572 262.841 291.902 264.333 297.657 265.612C306.504 267.424 310.448 267.637 322.065 267.104C329.74 266.784 337.094 266.145 338.586 265.825C341.038 265.292 342.317 262.521 351.91 236.301C357.665 220.313 364.593 201.234 367.258 193.666C369.923 186.205 372.374 180.13 372.694 180.13C373.014 180.13 378.236 193.879 384.312 210.72C390.387 227.667 395.503 241.63 395.717 241.843C396.782 243.122 440.909 212.319 440.909 210.294C440.909 209.548 439.63 205.71 438.138 201.767C436.646 197.716 427.799 174.161 418.419 149.22C409.04 124.279 400.833 102.642 400.193 100.936L399.127 98.0583L385.058 98.1649C377.384 98.2715 369.07 98.6979 366.618 99.2308Z" fill="url(#paint1_linear_159_570)"/>
<path d="M366.618 99.2308C355.427 101.363 344.875 109.143 340.078 118.523C338.693 121.294 335.176 129.714 332.298 137.175C329.526 144.743 323.025 161.584 318.015 174.8C313.006 188.017 304.585 210.081 299.363 223.83C294.033 237.58 288.704 251.649 287.425 255.06C285.719 259.217 285.293 261.562 286.039 262.308C286.572 262.841 291.902 264.333 297.657 265.612C306.504 267.424 310.448 267.637 322.065 267.104C329.74 266.784 337.094 266.145 338.586 265.825C341.038 265.292 342.317 262.521 351.91 236.301C357.665 220.313 364.593 201.234 367.258 193.666C369.923 186.205 372.374 180.13 372.694 180.13C373.014 180.13 378.236 193.879 384.312 210.72C390.387 227.667 395.503 241.63 395.717 241.843C396.782 243.122 440.909 212.319 440.909 210.294C440.909 209.548 439.63 205.71 438.138 201.767C436.646 197.716 427.799 174.161 418.419 149.22C409.04 124.279 400.833 102.642 400.193 100.936L399.127 98.0583L385.058 98.1649C377.384 98.2715 369.07 98.6979 366.618 99.2308Z" fill="url(#paint2_linear_159_570)"/>
<path d="M366.618 99.2308C355.427 101.363 344.875 109.143 340.078 118.523C338.693 121.294 335.176 129.714 332.298 137.175C329.526 144.743 323.025 161.584 318.015 174.8C313.006 188.017 304.585 210.081 299.363 223.83C294.033 237.58 288.704 251.649 287.425 255.06C285.719 259.217 285.293 261.562 286.039 262.308C286.572 262.841 291.902 264.333 297.657 265.612C306.504 267.424 310.448 267.637 322.065 267.104C329.74 266.784 337.094 266.145 338.586 265.825C341.038 265.292 342.317 262.521 351.91 236.301C357.665 220.313 364.593 201.234 367.258 193.666C369.923 186.205 372.374 180.13 372.694 180.13C373.014 180.13 378.236 193.879 384.312 210.72C390.387 227.667 395.503 241.63 395.717 241.843C396.782 243.122 440.909 212.319 440.909 210.294C440.909 209.548 439.63 205.71 438.138 201.767C436.646 197.716 427.799 174.161 418.419 149.22C409.04 124.279 400.833 102.642 400.193 100.936L399.127 98.0583L385.058 98.1649C377.384 98.2715 369.07 98.6979 366.618 99.2308Z" fill="url(#paint3_linear_159_570)"/>
<path d="M366.618 99.2308C355.427 101.363 344.875 109.143 340.078 118.523C338.693 121.294 335.176 129.714 332.298 137.175C329.526 144.743 323.025 161.584 318.015 174.8C313.006 188.017 304.585 210.081 299.363 223.83C294.033 237.58 288.704 251.649 287.425 255.06C285.719 259.217 285.293 261.562 286.039 262.308C286.572 262.841 291.902 264.333 297.657 265.612C306.504 267.424 310.448 267.637 322.065 267.104C329.74 266.784 337.094 266.145 338.586 265.825C341.038 265.292 342.317 262.521 351.91 236.301C357.665 220.313 364.593 201.234 367.258 193.666C369.923 186.205 372.374 180.13 372.694 180.13C373.014 180.13 378.236 193.879 384.312 210.72C390.387 227.667 395.503 241.63 395.717 241.843C396.782 243.122 440.909 212.319 440.909 210.294C440.909 209.548 439.63 205.71 438.138 201.767C436.646 197.716 427.799 174.161 418.419 149.22C409.04 124.279 400.833 102.642 400.193 100.936L399.127 98.0583L385.058 98.1649C377.384 98.2715 369.07 98.6979 366.618 99.2308Z" fill="url(#paint4_linear_159_570)"/>
<path d="M366.618 99.2308C355.427 101.363 344.875 109.143 340.078 118.523C338.693 121.294 335.176 129.714 332.298 137.175C329.526 144.743 323.025 161.584 318.015 174.8C313.006 188.017 304.585 210.081 299.363 223.83C294.033 237.58 288.704 251.649 287.425 255.06C285.719 259.217 285.293 261.562 286.039 262.308C286.572 262.841 291.902 264.333 297.657 265.612C306.504 267.424 310.448 267.637 322.065 267.104C329.74 266.784 337.094 266.145 338.586 265.825C341.038 265.292 342.317 262.521 351.91 236.301C357.665 220.313 364.593 201.234 367.258 193.666C369.923 186.205 372.374 180.13 372.694 180.13C373.014 180.13 378.236 193.879 384.312 210.72C390.387 227.667 395.503 241.63 395.717 241.843C396.782 243.122 440.909 212.319 440.909 210.294C440.909 209.548 439.63 205.71 438.138 201.767C436.646 197.716 427.799 174.161 418.419 149.22C409.04 124.279 400.833 102.642 400.193 100.936L399.127 98.0583L385.058 98.1649C377.384 98.2715 369.07 98.6979 366.618 99.2308Z" fill="url(#paint5_linear_159_570)"/>
<path d="M366.618 99.2308C355.427 101.363 344.875 109.143 340.078 118.523C338.693 121.294 335.176 129.714 332.298 137.175C329.526 144.743 323.025 161.584 318.015 174.8C313.006 188.017 304.585 210.081 299.363 223.83C294.033 237.58 288.704 251.649 287.425 255.06C285.719 259.217 285.293 261.562 286.039 262.308C286.572 262.841 291.902 264.333 297.657 265.612C306.504 267.424 310.448 267.637 322.065 267.104C329.74 266.784 337.094 266.145 338.586 265.825C341.038 265.292 342.317 262.521 351.91 236.301C357.665 220.313 364.593 201.234 367.258 193.666C369.923 186.205 372.374 180.13 372.694 180.13C373.014 180.13 378.236 193.879 384.312 210.72C390.387 227.667 395.503 241.63 395.717 241.843C396.782 243.122 440.909 212.319 440.909 210.294C440.909 209.548 439.63 205.71 438.138 201.767C436.646 197.716 427.799 174.161 418.419 149.22C409.04 124.279 400.833 102.642 400.193 100.936L399.127 98.0583L385.058 98.1649C377.384 98.2715 369.07 98.6979 366.618 99.2308Z" fill="url(#paint6_linear_159_570)"/>
<path d="M366.618 99.2308C355.427 101.363 344.875 109.143 340.078 118.523C338.693 121.294 335.176 129.714 332.298 137.175C329.526 144.743 323.025 161.584 318.015 174.8C313.006 188.017 304.585 210.081 299.363 223.83C294.033 237.58 288.704 251.649 287.425 255.06C285.719 259.217 285.293 261.562 286.039 262.308C286.572 262.841 291.902 264.333 297.657 265.612C306.504 267.424 310.448 267.637 322.065 267.104C329.74 266.784 337.094 266.145 338.586 265.825C341.038 265.292 342.317 262.521 351.91 236.301C357.665 220.313 364.593 201.234 367.258 193.666C369.923 186.205 372.374 180.13 372.694 180.13C373.014 180.13 378.236 193.879 384.312 210.72C390.387 227.667 395.503 241.63 395.717 241.843C396.782 243.122 440.909 212.319 440.909 210.294C440.909 209.548 439.63 205.71 438.138 201.767C436.646 197.716 427.799 174.161 418.419 149.22C409.04 124.279 400.833 102.642 400.193 100.936L399.127 98.0583L385.058 98.1649C377.384 98.2715 369.07 98.6979 366.618 99.2308Z" fill="url(#paint7_linear_159_570)"/>
<path d="M366.618 99.2308C355.427 101.363 344.875 109.143 340.078 118.523C338.693 121.294 335.176 129.714 332.298 137.175C329.526 144.743 323.025 161.584 318.015 174.8C313.006 188.017 304.585 210.081 299.363 223.83C294.033 237.58 288.704 251.649 287.425 255.06C285.719 259.217 285.293 261.562 286.039 262.308C286.572 262.841 291.902 264.333 297.657 265.612C306.504 267.424 310.448 267.637 322.065 267.104C329.74 266.784 337.094 266.145 338.586 265.825C341.038 265.292 342.317 262.521 351.91 236.301C357.665 220.313 364.593 201.234 367.258 193.666C369.923 186.205 372.374 180.13 372.694 180.13C373.014 180.13 378.236 193.879 384.312 210.72C390.387 227.667 395.503 241.63 395.717 241.843C396.782 243.122 440.909 212.319 440.909 210.294C440.909 209.548 439.63 205.71 438.138 201.767C436.646 197.716 427.799 174.161 418.419 149.22C409.04 124.279 400.833 102.642 400.193 100.936L399.127 98.0583L385.058 98.1649C377.384 98.2715 369.07 98.6979 366.618 99.2308Z" fill="url(#paint8_linear_159_570)"/>
<path d="M366.618 99.2308C355.427 101.363 344.875 109.143 340.078 118.523C338.693 121.294 335.176 129.714 332.298 137.175C329.526 144.743 323.025 161.584 318.015 174.8C313.006 188.017 304.585 210.081 299.363 223.83C294.033 237.58 288.704 251.649 287.425 255.06C285.719 259.217 285.293 261.562 286.039 262.308C286.572 262.841 291.902 264.333 297.657 265.612C306.504 267.424 310.448 267.637 322.065 267.104C329.74 266.784 337.094 266.145 338.586 265.825C341.038 265.292 342.317 262.521 351.91 236.301C357.665 220.313 364.593 201.234 367.258 193.666C369.923 186.205 372.374 180.13 372.694 180.13C373.014 180.13 378.236 193.879 384.312 210.72C390.387 227.667 395.503 241.63 395.717 241.843C396.782 243.122 440.909 212.319 440.909 210.294C440.909 209.548 439.63 205.71 438.138 201.767C436.646 197.716 427.799 174.161 418.419 149.22C409.04 124.279 400.833 102.642 400.193 100.936L399.127 98.0583L385.058 98.1649C377.384 98.2715 369.07 98.6979 366.618 99.2308Z" fill="url(#paint9_linear_159_570)"/>
<path d="M485.569 2.77127C478.534 6.71496 476.722 10.7652 473.418 29.3113C471.926 38.0513 469.687 49.5626 468.622 54.892C466.49 65.3374 466.277 73.9709 466.383 153.164L466.49 192.815L476.083 185.886C490.792 175.334 498.999 170.325 512.215 163.717C549.094 145.171 584.374 141.973 608.569 154.763C636.069 169.366 647.047 205.605 632.978 235.556C629.14 243.869 617.096 255.594 608.25 259.857C599.19 264.121 587.359 266.466 574.888 266.466H564.869L564.229 254.315C563.803 247.707 563.803 240.032 564.123 237.474C564.549 234.81 564.336 232.358 563.91 232.038C563.377 231.719 559.326 232.465 554.956 233.531C540.248 237.261 524.26 247.6 482.478 280.215C462.653 295.67 431.423 317.627 429.185 317.627C427.266 317.627 428.012 320.185 435.153 339.584C438.991 350.029 445.706 368.362 449.969 380.087C454.339 391.918 459.029 403.962 460.521 406.84C464.145 414.088 471.926 421.442 480.239 425.599L487.274 429.01H514.987C539.928 429.01 543.019 428.797 546.43 426.985C552.718 423.68 559.113 416.752 561.565 410.357C563.91 404.708 564.016 403.003 564.123 369.321C564.123 349.923 564.229 330.204 564.336 325.301L564.549 316.561H577.659C592.688 316.561 607.29 314.43 618.802 310.592C636.602 304.624 656 291.833 667.298 278.723C687.763 254.848 697.356 219.674 691.92 188.445C687.656 163.93 678.49 145.49 662.395 129.076C640.972 107.332 613.046 96.9935 575.208 96.9935H564.016L563.697 79.9397C563.483 65.9769 562.844 60.1147 560.392 48.177C558.687 40.1831 556.555 28.9915 555.596 23.449C553.677 12.4706 550.8 6.28862 546.11 2.77127C543.232 0.639546 541.527 0.53296 516.799 0.213201L490.472 2.87369e-05L485.569 2.77127ZM503.795 98.5923C503.795 108.505 503.795 108.718 501.344 108.718C499.851 108.718 496.334 106.586 492.71 103.389C489.406 100.404 485.675 98.0594 484.61 98.0594C480.453 98.0594 479.28 96.8869 479.28 92.6235V88.4666H491.538H503.795V98.5923ZM550.693 92.7301C550.693 96.6738 550.48 96.8869 546.749 97.6331C544.191 98.0594 540.994 100.085 537.903 102.962C533 107.546 528.097 110.21 526.818 109.038C525.965 108.185 525.965 99.6582 526.818 93.3696L527.564 88.4666H539.075H550.693V92.7301Z" fill="url(#paint10_linear_159_570)"/>
<path d="M485.569 2.77127C478.534 6.71496 476.722 10.7652 473.418 29.3113C471.926 38.0513 469.687 49.5626 468.622 54.892C466.49 65.3374 466.277 73.9709 466.383 153.164L466.49 192.815L476.083 185.886C490.792 175.334 498.999 170.325 512.215 163.717C549.094 145.171 584.374 141.973 608.569 154.763C636.069 169.366 647.047 205.605 632.978 235.556C629.14 243.869 617.096 255.594 608.25 259.857C599.19 264.121 587.359 266.466 574.888 266.466H564.869L564.229 254.315C563.803 247.707 563.803 240.032 564.123 237.474C564.549 234.81 564.336 232.358 563.91 232.038C563.377 231.719 559.326 232.465 554.956 233.531C540.248 237.261 524.26 247.6 482.478 280.215C462.653 295.67 431.423 317.627 429.185 317.627C427.266 317.627 428.012 320.185 435.153 339.584C438.991 350.029 445.706 368.362 449.969 380.087C454.339 391.918 459.029 403.962 460.521 406.84C464.145 414.088 471.926 421.442 480.239 425.599L487.274 429.01H514.987C539.928 429.01 543.019 428.797 546.43 426.985C552.718 423.68 559.113 416.752 561.565 410.357C563.91 404.708 564.016 403.003 564.123 369.321C564.123 349.923 564.229 330.204 564.336 325.301L564.549 316.561H577.659C592.688 316.561 607.29 314.43 618.802 310.592C636.602 304.624 656 291.833 667.298 278.723C687.763 254.848 697.356 219.674 691.92 188.445C687.656 163.93 678.49 145.49 662.395 129.076C640.972 107.332 613.046 96.9935 575.208 96.9935H564.016L563.697 79.9397C563.483 65.9769 562.844 60.1147 560.392 48.177C558.687 40.1831 556.555 28.9915 555.596 23.449C553.677 12.4706 550.8 6.28862 546.11 2.77127C543.232 0.639546 541.527 0.53296 516.799 0.213201L490.472 2.87369e-05L485.569 2.77127ZM503.795 98.5923C503.795 108.505 503.795 108.718 501.344 108.718C499.851 108.718 496.334 106.586 492.71 103.389C489.406 100.404 485.675 98.0594 484.61 98.0594C480.453 98.0594 479.28 96.8869 479.28 92.6235V88.4666H491.538H503.795V98.5923ZM550.693 92.7301C550.693 96.6738 550.48 96.8869 546.749 97.6331C544.191 98.0594 540.994 100.085 537.903 102.962C533 107.546 528.097 110.21 526.818 109.038C525.965 108.185 525.965 99.6582 526.818 93.3696L527.564 88.4666H539.075H550.693V92.7301Z" fill="url(#paint11_linear_159_570)"/>
<path d="M485.569 2.77127C478.534 6.71496 476.722 10.7652 473.418 29.3113C471.926 38.0513 469.687 49.5626 468.622 54.892C466.49 65.3374 466.277 73.9709 466.383 153.164L466.49 192.815L476.083 185.886C490.792 175.334 498.999 170.325 512.215 163.717C549.094 145.171 584.374 141.973 608.569 154.763C636.069 169.366 647.047 205.605 632.978 235.556C629.14 243.869 617.096 255.594 608.25 259.857C599.19 264.121 587.359 266.466 574.888 266.466H564.869L564.229 254.315C563.803 247.707 563.803 240.032 564.123 237.474C564.549 234.81 564.336 232.358 563.91 232.038C563.377 231.719 559.326 232.465 554.956 233.531C540.248 237.261 524.26 247.6 482.478 280.215C462.653 295.67 431.423 317.627 429.185 317.627C427.266 317.627 428.012 320.185 435.153 339.584C438.991 350.029 445.706 368.362 449.969 380.087C454.339 391.918 459.029 403.962 460.521 406.84C464.145 414.088 471.926 421.442 480.239 425.599L487.274 429.01H514.987C539.928 429.01 543.019 428.797 546.43 426.985C552.718 423.68 559.113 416.752 561.565 410.357C563.91 404.708 564.016 403.003 564.123 369.321C564.123 349.923 564.229 330.204 564.336 325.301L564.549 316.561H577.659C592.688 316.561 607.29 314.43 618.802 310.592C636.602 304.624 656 291.833 667.298 278.723C687.763 254.848 697.356 219.674 691.92 188.445C687.656 163.93 678.49 145.49 662.395 129.076C640.972 107.332 613.046 96.9935 575.208 96.9935H564.016L563.697 79.9397C563.483 65.9769 562.844 60.1147 560.392 48.177C558.687 40.1831 556.555 28.9915 555.596 23.449C553.677 12.4706 550.8 6.28862 546.11 2.77127C543.232 0.639546 541.527 0.53296 516.799 0.213201L490.472 2.87369e-05L485.569 2.77127ZM503.795 98.5923C503.795 108.505 503.795 108.718 501.344 108.718C499.851 108.718 496.334 106.586 492.71 103.389C489.406 100.404 485.675 98.0594 484.61 98.0594C480.453 98.0594 479.28 96.8869 479.28 92.6235V88.4666H491.538H503.795V98.5923ZM550.693 92.7301C550.693 96.6738 550.48 96.8869 546.749 97.6331C544.191 98.0594 540.994 100.085 537.903 102.962C533 107.546 528.097 110.21 526.818 109.038C525.965 108.185 525.965 99.6582 526.818 93.3696L527.564 88.4666H539.075H550.693V92.7301Z" fill="url(#paint12_linear_159_570)"/>
<path d="M485.569 2.77127C478.534 6.71496 476.722 10.7652 473.418 29.3113C471.926 38.0513 469.687 49.5626 468.622 54.892C466.49 65.3374 466.277 73.9709 466.383 153.164L466.49 192.815L476.083 185.886C490.792 175.334 498.999 170.325 512.215 163.717C549.094 145.171 584.374 141.973 608.569 154.763C636.069 169.366 647.047 205.605 632.978 235.556C629.14 243.869 617.096 255.594 608.25 259.857C599.19 264.121 587.359 266.466 574.888 266.466H564.869L564.229 254.315C563.803 247.707 563.803 240.032 564.123 237.474C564.549 234.81 564.336 232.358 563.91 232.038C563.377 231.719 559.326 232.465 554.956 233.531C540.248 237.261 524.26 247.6 482.478 280.215C462.653 295.67 431.423 317.627 429.185 317.627C427.266 317.627 428.012 320.185 435.153 339.584C438.991 350.029 445.706 368.362 449.969 380.087C454.339 391.918 459.029 403.962 460.521 406.84C464.145 414.088 471.926 421.442 480.239 425.599L487.274 429.01H514.987C539.928 429.01 543.019 428.797 546.43 426.985C552.718 423.68 559.113 416.752 561.565 410.357C563.91 404.708 564.016 403.003 564.123 369.321C564.123 349.923 564.229 330.204 564.336 325.301L564.549 316.561H577.659C592.688 316.561 607.29 314.43 618.802 310.592C636.602 304.624 656 291.833 667.298 278.723C687.763 254.848 697.356 219.674 691.92 188.445C687.656 163.93 678.49 145.49 662.395 129.076C640.972 107.332 613.046 96.9935 575.208 96.9935H564.016L563.697 79.9397C563.483 65.9769 562.844 60.1147 560.392 48.177C558.687 40.1831 556.555 28.9915 555.596 23.449C553.677 12.4706 550.8 6.28862 546.11 2.77127C543.232 0.639546 541.527 0.53296 516.799 0.213201L490.472 2.87369e-05L485.569 2.77127ZM503.795 98.5923C503.795 108.505 503.795 108.718 501.344 108.718C499.851 108.718 496.334 106.586 492.71 103.389C489.406 100.404 485.675 98.0594 484.61 98.0594C480.453 98.0594 479.28 96.8869 479.28 92.6235V88.4666H491.538H503.795V98.5923ZM550.693 92.7301C550.693 96.6738 550.48 96.8869 546.749 97.6331C544.191 98.0594 540.994 100.085 537.903 102.962C533 107.546 528.097 110.21 526.818 109.038C525.965 108.185 525.965 99.6582 526.818 93.3696L527.564 88.4666H539.075H550.693V92.7301Z" fill="url(#paint13_linear_159_570)"/>
<path d="M553.784 160.839C526.072 165.955 502.623 178.212 457.963 211.041C417.78 240.565 406.162 248.133 384.951 259.005C342.956 280.535 302.88 283.413 274.954 267.105C267.28 262.629 255.662 250.584 252.358 243.656C244.79 228.201 245.11 210.082 252.998 194.946C259.819 181.73 271.544 172.776 288.491 167.66L296.485 165.315H289.024C272.716 165.209 259.18 170.858 247.348 182.689C215.692 214.345 225.818 265.933 268.346 289.808C284.014 298.548 298.403 301.959 319.934 301.959C342.85 301.852 364.167 296.63 389.428 284.585C411.598 274.033 428.332 263.268 467.875 233.744C507.739 204.113 526.924 192.388 547.495 185.247C556.875 182.049 558.58 181.836 571.477 181.73C583.522 181.73 585.973 182.049 590.45 184.075C597.591 187.485 605.478 195.16 608.356 201.768C611.767 209.655 611.874 223.298 608.463 230.653C605.372 237.368 599.723 244.296 594.713 247.387C589.277 250.798 592.048 251.224 598.337 247.92C607.077 243.55 614.112 236.302 618.588 227.242C622.532 219.355 622.639 218.822 622.639 207.417C622.639 196.439 622.426 195.16 619.335 188.658C613.259 175.974 602.814 167.021 588.318 162.438C582.349 160.519 561.032 159.56 553.784 160.839Z" fill="white"/>
<path d="M553.784 160.839C526.072 165.955 502.623 178.212 457.963 211.041C417.78 240.565 406.162 248.133 384.951 259.005C342.956 280.535 302.88 283.413 274.954 267.105C267.28 262.629 255.662 250.584 252.358 243.656C244.79 228.201 245.11 210.082 252.998 194.946C259.819 181.73 271.544 172.776 288.491 167.66L296.485 165.315H289.024C272.716 165.209 259.18 170.858 247.348 182.689C215.692 214.345 225.818 265.933 268.346 289.808C284.014 298.548 298.403 301.959 319.934 301.959C342.85 301.852 364.167 296.63 389.428 284.585C411.598 274.033 428.332 263.268 467.875 233.744C507.739 204.113 526.924 192.388 547.495 185.247C556.875 182.049 558.58 181.836 571.477 181.73C583.522 181.73 585.973 182.049 590.45 184.075C597.591 187.485 605.478 195.16 608.356 201.768C611.767 209.655 611.874 223.298 608.463 230.653C605.372 237.368 599.723 244.296 594.713 247.387C589.277 250.798 592.048 251.224 598.337 247.92C607.077 243.55 614.112 236.302 618.588 227.242C622.532 219.355 622.639 218.822 622.639 207.417C622.639 196.439 622.426 195.16 619.335 188.658C613.259 175.974 602.814 167.021 588.318 162.438C582.349 160.519 561.032 159.56 553.784 160.839Z" fill="url(#paint14_linear_159_570)"/>
<path d="M553.784 160.839C526.072 165.955 502.623 178.212 457.963 211.041C417.78 240.565 406.162 248.133 384.951 259.005C342.956 280.535 302.88 283.413 274.954 267.105C267.28 262.629 255.662 250.584 252.358 243.656C244.79 228.201 245.11 210.082 252.998 194.946C259.819 181.73 271.544 172.776 288.491 167.66L296.485 165.315H289.024C272.716 165.209 259.18 170.858 247.348 182.689C215.692 214.345 225.818 265.933 268.346 289.808C284.014 298.548 298.403 301.959 319.934 301.959C342.85 301.852 364.167 296.63 389.428 284.585C411.598 274.033 428.332 263.268 467.875 233.744C507.739 204.113 526.924 192.388 547.495 185.247C556.875 182.049 558.58 181.836 571.477 181.73C583.522 181.73 585.973 182.049 590.45 184.075C597.591 187.485 605.478 195.16 608.356 201.768C611.767 209.655 611.874 223.298 608.463 230.653C605.372 237.368 599.723 244.296 594.713 247.387C589.277 250.798 592.048 251.224 598.337 247.92C607.077 243.55 614.112 236.302 618.588 227.242C622.532 219.355 622.639 218.822 622.639 207.417C622.639 196.439 622.426 195.16 619.335 188.658C613.259 175.974 602.814 167.021 588.318 162.438C582.349 160.519 561.032 159.56 553.784 160.839Z" fill="url(#paint15_linear_159_570)"/>
<path d="M553.784 160.839C526.072 165.955 502.623 178.212 457.963 211.041C417.78 240.565 406.162 248.133 384.951 259.005C342.956 280.535 302.88 283.413 274.954 267.105C267.28 262.629 255.662 250.584 252.358 243.656C244.79 228.201 245.11 210.082 252.998 194.946C259.819 181.73 271.544 172.776 288.491 167.66L296.485 165.315H289.024C272.716 165.209 259.18 170.858 247.348 182.689C215.692 214.345 225.818 265.933 268.346 289.808C284.014 298.548 298.403 301.959 319.934 301.959C342.85 301.852 364.167 296.63 389.428 284.585C411.598 274.033 428.332 263.268 467.875 233.744C507.739 204.113 526.924 192.388 547.495 185.247C556.875 182.049 558.58 181.836 571.477 181.73C583.522 181.73 585.973 182.049 590.45 184.075C597.591 187.485 605.478 195.16 608.356 201.768C611.767 209.655 611.874 223.298 608.463 230.653C605.372 237.368 599.723 244.296 594.713 247.387C589.277 250.798 592.048 251.224 598.337 247.92C607.077 243.55 614.112 236.302 618.588 227.242C622.532 219.355 622.639 218.822 622.639 207.417C622.639 196.439 622.426 195.16 619.335 188.658C613.259 175.974 602.814 167.021 588.318 162.438C582.349 160.519 561.032 159.56 553.784 160.839Z" fill="url(#paint16_linear_159_570)"/>
<path d="M553.784 160.839C526.072 165.955 502.623 178.212 457.963 211.041C417.78 240.565 406.162 248.133 384.951 259.005C342.956 280.535 302.88 283.413 274.954 267.105C267.28 262.629 255.662 250.584 252.358 243.656C244.79 228.201 245.11 210.082 252.998 194.946C259.819 181.73 271.544 172.776 288.491 167.66L296.485 165.315H289.024C272.716 165.209 259.18 170.858 247.348 182.689C215.692 214.345 225.818 265.933 268.346 289.808C284.014 298.548 298.403 301.959 319.934 301.959C342.85 301.852 364.167 296.63 389.428 284.585C411.598 274.033 428.332 263.268 467.875 233.744C507.739 204.113 526.924 192.388 547.495 185.247C556.875 182.049 558.58 181.836 571.477 181.73C583.522 181.73 585.973 182.049 590.45 184.075C597.591 187.485 605.478 195.16 608.356 201.768C611.767 209.655 611.874 223.298 608.463 230.653C605.372 237.368 599.723 244.296 594.713 247.387C589.277 250.798 592.048 251.224 598.337 247.92C607.077 243.55 614.112 236.302 618.588 227.242C622.532 219.355 622.639 218.822 622.639 207.417C622.639 196.439 622.426 195.16 619.335 188.658C613.259 175.974 602.814 167.021 588.318 162.438C582.349 160.519 561.032 159.56 553.784 160.839Z" fill="url(#paint17_linear_159_570)"/>
<path d="M553.784 160.839C526.072 165.955 502.623 178.212 457.963 211.041C417.78 240.565 406.162 248.133 384.951 259.005C342.956 280.535 302.88 283.413 274.954 267.105C267.28 262.629 255.662 250.584 252.358 243.656C244.79 228.201 245.11 210.082 252.998 194.946C259.819 181.73 271.544 172.776 288.491 167.66L296.485 165.315H289.024C272.716 165.209 259.18 170.858 247.348 182.689C215.692 214.345 225.818 265.933 268.346 289.808C284.014 298.548 298.403 301.959 319.934 301.959C342.85 301.852 364.167 296.63 389.428 284.585C411.598 274.033 428.332 263.268 467.875 233.744C507.739 204.113 526.924 192.388 547.495 185.247C556.875 182.049 558.58 181.836 571.477 181.73C583.522 181.73 585.973 182.049 590.45 184.075C597.591 187.485 605.478 195.16 608.356 201.768C611.767 209.655 611.874 223.298 608.463 230.653C605.372 237.368 599.723 244.296 594.713 247.387C589.277 250.798 592.048 251.224 598.337 247.92C607.077 243.55 614.112 236.302 618.588 227.242C622.532 219.355 622.639 218.822 622.639 207.417C622.639 196.439 622.426 195.16 619.335 188.658C613.259 175.974 602.814 167.021 588.318 162.438C582.349 160.519 561.032 159.56 553.784 160.839Z" fill="url(#paint18_linear_159_570)"/>
<path d="M553.784 160.839C526.072 165.955 502.623 178.212 457.963 211.041C417.78 240.565 406.162 248.133 384.951 259.005C342.956 280.535 302.88 283.413 274.954 267.105C267.28 262.629 255.662 250.584 252.358 243.656C244.79 228.201 245.11 210.082 252.998 194.946C259.819 181.73 271.544 172.776 288.491 167.66L296.485 165.315H289.024C272.716 165.209 259.18 170.858 247.348 182.689C215.692 214.345 225.818 265.933 268.346 289.808C284.014 298.548 298.403 301.959 319.934 301.959C342.85 301.852 364.167 296.63 389.428 284.585C411.598 274.033 428.332 263.268 467.875 233.744C507.739 204.113 526.924 192.388 547.495 185.247C556.875 182.049 558.58 181.836 571.477 181.73C583.522 181.73 585.973 182.049 590.45 184.075C597.591 187.485 605.478 195.16 608.356 201.768C611.767 209.655 611.874 223.298 608.463 230.653C605.372 237.368 599.723 244.296 594.713 247.387C589.277 250.798 592.048 251.224 598.337 247.92C607.077 243.55 614.112 236.302 618.588 227.242C622.532 219.355 622.639 218.822 622.639 207.417C622.639 196.439 622.426 195.16 619.335 188.658C613.259 175.974 602.814 167.021 588.318 162.438C582.349 160.519 561.032 159.56 553.784 160.839Z" fill="url(#paint19_linear_159_570)"/>
<path d="M545.897 207.949C536.197 209.335 525.858 212.959 512.535 219.674C499.212 226.389 490.898 231.825 469.794 247.493C412.557 290.127 378.45 307.821 341.784 314.003C327.182 316.347 301.281 315.601 289.343 312.404C255.982 303.344 232.64 283.093 222.514 254.421C218.89 244.189 216.652 230.865 217.184 222.871C217.398 219.993 217.291 217.862 216.971 218.288C215.479 219.993 213.667 230.332 213.134 239.819C211.855 261.562 219.743 283.199 235.731 302.065C247.988 316.454 271.33 330.417 293.287 336.386C303.2 339.157 305.438 339.37 324.73 339.37C348.072 339.477 357.878 337.878 379.089 330.843C410.852 320.291 435.473 304.836 491.431 260.283C520.529 237.047 538.542 225.856 552.505 222.232C564.975 218.928 582.775 220.846 589.49 226.069C592.901 228.734 593.008 227.881 590.023 223.617C581.71 212 563.377 205.498 545.897 207.949Z" fill="white"/>
<path d="M545.897 207.949C536.197 209.335 525.858 212.959 512.535 219.674C499.212 226.389 490.898 231.825 469.794 247.493C412.557 290.127 378.45 307.821 341.784 314.003C327.182 316.347 301.281 315.601 289.343 312.404C255.982 303.344 232.64 283.093 222.514 254.421C218.89 244.189 216.652 230.865 217.184 222.871C217.398 219.993 217.291 217.862 216.971 218.288C215.479 219.993 213.667 230.332 213.134 239.819C211.855 261.562 219.743 283.199 235.731 302.065C247.988 316.454 271.33 330.417 293.287 336.386C303.2 339.157 305.438 339.37 324.73 339.37C348.072 339.477 357.878 337.878 379.089 330.843C410.852 320.291 435.473 304.836 491.431 260.283C520.529 237.047 538.542 225.856 552.505 222.232C564.975 218.928 582.775 220.846 589.49 226.069C592.901 228.734 593.008 227.881 590.023 223.617C581.71 212 563.377 205.498 545.897 207.949Z" fill="url(#paint20_linear_159_570)"/>
<path d="M545.897 207.949C536.197 209.335 525.858 212.959 512.535 219.674C499.212 226.389 490.898 231.825 469.794 247.493C412.557 290.127 378.45 307.821 341.784 314.003C327.182 316.347 301.281 315.601 289.343 312.404C255.982 303.344 232.64 283.093 222.514 254.421C218.89 244.189 216.652 230.865 217.184 222.871C217.398 219.993 217.291 217.862 216.971 218.288C215.479 219.993 213.667 230.332 213.134 239.819C211.855 261.562 219.743 283.199 235.731 302.065C247.988 316.454 271.33 330.417 293.287 336.386C303.2 339.157 305.438 339.37 324.73 339.37C348.072 339.477 357.878 337.878 379.089 330.843C410.852 320.291 435.473 304.836 491.431 260.283C520.529 237.047 538.542 225.856 552.505 222.232C564.975 218.928 582.775 220.846 589.49 226.069C592.901 228.734 593.008 227.881 590.023 223.617C581.71 212 563.377 205.498 545.897 207.949Z" fill="url(#paint21_linear_159_570)"/>
<path d="M545.897 207.949C536.197 209.335 525.858 212.959 512.535 219.674C499.212 226.389 490.898 231.825 469.794 247.493C412.557 290.127 378.45 307.821 341.784 314.003C327.182 316.347 301.281 315.601 289.343 312.404C255.982 303.344 232.64 283.093 222.514 254.421C218.89 244.189 216.652 230.865 217.184 222.871C217.398 219.993 217.291 217.862 216.971 218.288C215.479 219.993 213.667 230.332 213.134 239.819C211.855 261.562 219.743 283.199 235.731 302.065C247.988 316.454 271.33 330.417 293.287 336.386C303.2 339.157 305.438 339.37 324.73 339.37C348.072 339.477 357.878 337.878 379.089 330.843C410.852 320.291 435.473 304.836 491.431 260.283C520.529 237.047 538.542 225.856 552.505 222.232C564.975 218.928 582.775 220.846 589.49 226.069C592.901 228.734 593.008 227.881 590.023 223.617C581.71 212 563.377 205.498 545.897 207.949Z" fill="url(#paint22_linear_159_570)"/>
<path d="M545.897 207.949C536.197 209.335 525.858 212.959 512.535 219.674C499.212 226.389 490.898 231.825 469.794 247.493C412.557 290.127 378.45 307.821 341.784 314.003C327.182 316.347 301.281 315.601 289.343 312.404C255.982 303.344 232.64 283.093 222.514 254.421C218.89 244.189 216.652 230.865 217.184 222.871C217.398 219.993 217.291 217.862 216.971 218.288C215.479 219.993 213.667 230.332 213.134 239.819C211.855 261.562 219.743 283.199 235.731 302.065C247.988 316.454 271.33 330.417 293.287 336.386C303.2 339.157 305.438 339.37 324.73 339.37C348.072 339.477 357.878 337.878 379.089 330.843C410.852 320.291 435.473 304.836 491.431 260.283C520.529 237.047 538.542 225.856 552.505 222.232C564.975 218.928 582.775 220.846 589.49 226.069C592.901 228.734 593.008 227.881 590.023 223.617C581.71 212 563.377 205.498 545.897 207.949Z" fill="url(#paint23_linear_159_570)"/>
<path d="M545.897 207.949C536.197 209.335 525.858 212.959 512.535 219.674C499.212 226.389 490.898 231.825 469.794 247.493C412.557 290.127 378.45 307.821 341.784 314.003C327.182 316.347 301.281 315.601 289.343 312.404C255.982 303.344 232.64 283.093 222.514 254.421C218.89 244.189 216.652 230.865 217.184 222.871C217.398 219.993 217.291 217.862 216.971 218.288C215.479 219.993 213.667 230.332 213.134 239.819C211.855 261.562 219.743 283.199 235.731 302.065C247.988 316.454 271.33 330.417 293.287 336.386C303.2 339.157 305.438 339.37 324.73 339.37C348.072 339.477 357.878 337.878 379.089 330.843C410.852 320.291 435.473 304.836 491.431 260.283C520.529 237.047 538.542 225.856 552.505 222.232C564.975 218.928 582.775 220.846 589.49 226.069C592.901 228.734 593.008 227.881 590.023 223.617C581.71 212 563.377 205.498 545.897 207.949Z" fill="url(#paint24_linear_159_570)"/>
<path d="M545.897 207.949C536.197 209.335 525.858 212.959 512.535 219.674C499.212 226.389 490.898 231.825 469.794 247.493C412.557 290.127 378.45 307.821 341.784 314.003C327.182 316.347 301.281 315.601 289.343 312.404C255.982 303.344 232.64 283.093 222.514 254.421C218.89 244.189 216.652 230.865 217.184 222.871C217.398 219.993 217.291 217.862 216.971 218.288C215.479 219.993 213.667 230.332 213.134 239.819C211.855 261.562 219.743 283.199 235.731 302.065C247.988 316.454 271.33 330.417 293.287 336.386C303.2 339.157 305.438 339.37 324.73 339.37C348.072 339.477 357.878 337.878 379.089 330.843C410.852 320.291 435.473 304.836 491.431 260.283C520.529 237.047 538.542 225.856 552.505 222.232C564.975 218.928 582.775 220.846 589.49 226.069C592.901 228.734 593.008 227.881 590.023 223.617C581.71 212 563.377 205.498 545.897 207.949Z" fill="url(#paint25_linear_159_570)"/>
<path d="M545.897 207.949C536.197 209.335 525.858 212.959 512.535 219.674C499.212 226.389 490.898 231.825 469.794 247.493C412.557 290.127 378.45 307.821 341.784 314.003C327.182 316.347 301.281 315.601 289.343 312.404C255.982 303.344 232.64 283.093 222.514 254.421C218.89 244.189 216.652 230.865 217.184 222.871C217.398 219.993 217.291 217.862 216.971 218.288C215.479 219.993 213.667 230.332 213.134 239.819C211.855 261.562 219.743 283.199 235.731 302.065C247.988 316.454 271.33 330.417 293.287 336.386C303.2 339.157 305.438 339.37 324.73 339.37C348.072 339.477 357.878 337.878 379.089 330.843C410.852 320.291 435.473 304.836 491.431 260.283C520.529 237.047 538.542 225.856 552.505 222.232C564.975 218.928 582.775 220.846 589.49 226.069C592.901 228.734 593.008 227.881 590.023 223.617C581.71 212 563.377 205.498 545.897 207.949Z" fill="url(#paint26_linear_159_570)"/>
<path d="M252.784 342.887C245.643 361.327 221.341 423.893 219.529 428.156C218.677 430.288 250.972 430.075 259.179 427.943C270.797 424.852 279.431 417.817 284.867 406.839C288.81 399.058 307.143 350.775 306.397 350.135C306.184 349.815 302.453 348.963 298.19 348.003C288.064 345.872 276.02 341.715 266.107 336.918C261.737 334.787 257.794 332.975 257.474 332.761C257.048 332.548 255.022 337.131 252.784 342.887Z" fill="black"/>
<path d="M252.784 342.887C245.643 361.327 221.341 423.893 219.529 428.156C218.677 430.288 250.972 430.075 259.179 427.943C270.797 424.852 279.431 417.817 284.867 406.839C288.81 399.058 307.143 350.775 306.397 350.135C306.184 349.815 302.453 348.963 298.19 348.003C288.064 345.872 276.02 341.715 266.107 336.918C261.737 334.787 257.794 332.975 257.474 332.761C257.048 332.548 255.022 337.131 252.784 342.887Z" fill="url(#paint27_linear_159_570)"/>
<path d="M252.784 342.887C245.643 361.327 221.341 423.893 219.529 428.156C218.677 430.288 250.972 430.075 259.179 427.943C270.797 424.852 279.431 417.817 284.867 406.839C288.81 399.058 307.143 350.775 306.397 350.135C306.184 349.815 302.453 348.963 298.19 348.003C288.064 345.872 276.02 341.715 266.107 336.918C261.737 334.787 257.794 332.975 257.474 332.761C257.048 332.548 255.022 337.131 252.784 342.887Z" fill="url(#paint28_linear_159_570)"/>
<path d="M252.784 342.887C245.643 361.327 221.341 423.893 219.529 428.156C218.677 430.288 250.972 430.075 259.179 427.943C270.797 424.852 279.431 417.817 284.867 406.839C288.81 399.058 307.143 350.775 306.397 350.135C306.184 349.815 302.453 348.963 298.19 348.003C288.064 345.872 276.02 341.715 266.107 336.918C261.737 334.787 257.794 332.975 257.474 332.761C257.048 332.548 255.022 337.131 252.784 342.887Z" fill="url(#paint29_linear_159_570)"/>
<path d="M252.784 342.887C245.643 361.327 221.341 423.893 219.529 428.156C218.677 430.288 250.972 430.075 259.179 427.943C270.797 424.852 279.431 417.817 284.867 406.839C288.81 399.058 307.143 350.775 306.397 350.135C306.184 349.815 302.453 348.963 298.19 348.003C288.064 345.872 276.02 341.715 266.107 336.918C261.737 334.787 257.794 332.975 257.474 332.761C257.048 332.548 255.022 337.131 252.784 342.887Z" fill="url(#paint30_linear_159_570)"/>
<path d="M252.784 342.887C245.643 361.327 221.341 423.893 219.529 428.156C218.677 430.288 250.972 430.075 259.179 427.943C270.797 424.852 279.431 417.817 284.867 406.839C288.81 399.058 307.143 350.775 306.397 350.135C306.184 349.815 302.453 348.963 298.19 348.003C288.064 345.872 276.02 341.715 266.107 336.918C261.737 334.787 257.794 332.975 257.474 332.761C257.048 332.548 255.022 337.131 252.784 342.887Z" fill="url(#paint31_linear_159_570)"/>
<path d="M252.784 342.887C245.643 361.327 221.341 423.893 219.529 428.156C218.677 430.288 250.972 430.075 259.179 427.943C270.797 424.852 279.431 417.817 284.867 406.839C288.81 399.058 307.143 350.775 306.397 350.135C306.184 349.815 302.453 348.963 298.19 348.003C288.064 345.872 276.02 341.715 266.107 336.918C261.737 334.787 257.794 332.975 257.474 332.761C257.048 332.548 255.022 337.131 252.784 342.887Z" fill="url(#paint32_linear_159_570)"/>
<path d="M252.784 342.887C245.643 361.327 221.341 423.893 219.529 428.156C218.677 430.288 250.972 430.075 259.179 427.943C270.797 424.852 279.431 417.817 284.867 406.839C288.81 399.058 307.143 350.775 306.397 350.135C306.184 349.815 302.453 348.963 298.19 348.003C288.064 345.872 276.02 341.715 266.107 336.918C261.737 334.787 257.794 332.975 257.474 332.761C257.048 332.548 255.022 337.131 252.784 342.887Z" fill="url(#paint33_linear_159_570)"/>
<path d="M252.784 342.887C245.643 361.327 221.341 423.893 219.529 428.156C218.677 430.288 250.972 430.075 259.179 427.943C270.797 424.852 279.431 417.817 284.867 406.839C288.81 399.058 307.143 350.775 306.397 350.135C306.184 349.815 302.453 348.963 298.19 348.003C288.064 345.872 276.02 341.715 266.107 336.918C261.737 334.787 257.794 332.975 257.474 332.761C257.048 332.548 255.022 337.131 252.784 342.887Z" fill="url(#paint34_linear_159_570)"/>
<path d="M252.784 342.887C245.643 361.327 221.341 423.893 219.529 428.156C218.677 430.288 250.972 430.075 259.179 427.943C270.797 424.852 279.431 417.817 284.867 406.839C288.81 399.058 307.143 350.775 306.397 350.135C306.184 349.815 302.453 348.963 298.19 348.003C288.064 345.872 276.02 341.715 266.107 336.918C261.737 334.787 257.794 332.975 257.474 332.761C257.048 332.548 255.022 337.131 252.784 342.887Z" fill="url(#paint35_linear_159_570)"/>
<path d="M252.784 342.887C245.643 361.327 221.341 423.893 219.529 428.156C218.677 430.288 250.972 430.075 259.179 427.943C270.797 424.852 279.431 417.817 284.867 406.839C288.81 399.058 307.143 350.775 306.397 350.135C306.184 349.815 302.453 348.963 298.19 348.003C288.064 345.872 276.02 341.715 266.107 336.918C261.737 334.787 257.794 332.975 257.474 332.761C257.048 332.548 255.022 337.131 252.784 342.887Z" fill="url(#paint36_linear_159_570)"/>
<path d="M252.784 342.887C245.643 361.327 221.341 423.893 219.529 428.156C218.677 430.288 250.972 430.075 259.179 427.943C270.797 424.852 279.431 417.817 284.867 406.839C288.81 399.058 307.143 350.775 306.397 350.135C306.184 349.815 302.453 348.963 298.19 348.003C288.064 345.872 276.02 341.715 266.107 336.918C261.737 334.787 257.794 332.975 257.474 332.761C257.048 332.548 255.022 337.131 252.784 342.887Z" fill="url(#paint37_linear_159_570)"/>
<path d="M252.784 342.887C245.643 361.327 221.341 423.893 219.529 428.156C218.677 430.288 250.972 430.075 259.179 427.943C270.797 424.852 279.431 417.817 284.867 406.839C288.81 399.058 307.143 350.775 306.397 350.135C306.184 349.815 302.453 348.963 298.19 348.003C288.064 345.872 276.02 341.715 266.107 336.918C261.737 334.787 257.794 332.975 257.474 332.761C257.048 332.548 255.022 337.131 252.784 342.887Z" fill="url(#paint38_linear_159_570)"/>
<path d="M252.784 342.887C245.643 361.327 221.341 423.893 219.529 428.156C218.677 430.288 250.972 430.075 259.179 427.943C270.797 424.852 279.431 417.817 284.867 406.839C288.81 399.058 307.143 350.775 306.397 350.135C306.184 349.815 302.453 348.963 298.19 348.003C288.064 345.872 276.02 341.715 266.107 336.918C261.737 334.787 257.794 332.975 257.474 332.761C257.048 332.548 255.022 337.131 252.784 342.887Z" fill="url(#paint39_linear_159_570)"/>
<path d="M-7.07805e-08 624L63 484H88.6L151.8 624H124.6L70.4 497.8H80.8L26.8 624H-7.07805e-08ZM29 591.6L36 571.2H111.6L118.6 591.6H29ZM169.605 624V484H195.605V624H169.605ZM233.472 624V484H291.072C303.472 484 314.072 486 322.872 490C331.805 494 338.672 499.733 343.472 507.2C348.272 514.667 350.672 523.533 350.672 533.8C350.672 544.067 348.272 552.933 343.472 560.4C338.672 567.733 331.805 573.4 322.872 577.4C314.072 581.267 303.472 583.2 291.072 583.2H247.872L259.472 571.4V624H233.472ZM325.072 624L289.672 573.2H317.472L353.072 624H325.072ZM259.472 574.2L247.872 561.8H289.872C301.339 561.8 309.939 559.333 315.672 554.4C321.539 549.467 324.472 542.6 324.472 533.8C324.472 524.867 321.539 518 315.672 513.2C309.939 508.4 301.339 506 289.872 506H247.872L259.472 493.2V574.2ZM379.761 624V484H437.361C449.761 484 460.361 486 469.161 490C478.094 494 484.961 499.733 489.761 507.2C494.561 514.667 496.961 523.533 496.961 533.8C496.961 544.067 494.561 552.933 489.761 560.4C484.961 567.867 478.094 573.6 469.161 577.6C460.361 581.6 449.761 583.6 437.361 583.6H394.161L405.761 571.4V624H379.761ZM405.761 574.2L394.161 561.6H436.161C447.628 561.6 456.228 559.2 461.961 554.4C467.828 549.467 470.761 542.6 470.761 533.8C470.761 524.867 467.828 518 461.961 513.2C456.228 508.4 447.628 506 436.161 506H394.161L405.761 493.2V574.2ZM582.93 626C563.73 626 548.663 620.6 537.73 609.8C526.93 599 521.53 583.4 521.53 563V484H547.53V562C547.53 576.4 550.596 586.867 556.73 593.4C562.996 599.933 571.796 603.2 583.13 603.2C594.463 603.2 603.196 599.933 609.33 593.4C615.463 586.867 618.53 576.4 618.53 562V484H644.13V563C644.13 583.4 638.663 599 627.73 609.8C616.93 620.6 601.996 626 582.93 626ZM680.542 624V484H706.542V602H779.742V624H680.542ZM800.269 624V484H826.269V602H899.469V624H800.269Z" fill="url(#paint40_linear_159_570)"/>
<defs>
<linearGradient id="paint0_linear_159_570" x1="560.849" y1="429.01" x2="560.849" y2="3.05176e-05" gradientUnits="userSpaceOnUse">
<stop offset="0.259615" stop-color="#FF7A43"/>
<stop offset="0.644231" stop-color="#9A46E8"/>
</linearGradient>
<linearGradient id="paint1_linear_159_570" x1="363.298" y1="267.359" x2="363.298" y2="98.0583" gradientUnits="userSpaceOnUse">
<stop offset="0.259615" stop-color="#FF7A43"/>
<stop offset="0.644231" stop-color="#9A46E8"/>
</linearGradient>
<linearGradient id="paint2_linear_159_570" x1="363.298" y1="267.359" x2="363.298" y2="98.0583" gradientUnits="userSpaceOnUse">
<stop offset="0.100962" stop-color="#EE0088"/>
<stop offset="0.375" stop-color="#BD27C9"/>
<stop offset="0.841346" stop-color="#911DFF"/>
</linearGradient>
<linearGradient id="paint3_linear_159_570" x1="363.298" y1="267.359" x2="363.298" y2="98.0583" gradientUnits="userSpaceOnUse">
<stop offset="0.100962" stop-color="#EE0088"/>
<stop offset="0.375" stop-color="#BD27C9"/>
<stop offset="0.841346" stop-color="#6400C3"/>
</linearGradient>
<linearGradient id="paint4_linear_159_570" x1="363.298" y1="267.359" x2="363.298" y2="98.0583" gradientUnits="userSpaceOnUse">
<stop offset="0.100962" stop-color="#920857"/>
<stop offset="0.375" stop-color="#64146B"/>
<stop offset="0.841346" stop-color="#6400C3"/>
</linearGradient>
<linearGradient id="paint5_linear_159_570" x1="363.298" y1="267.359" x2="363.298" y2="98.0583" gradientUnits="userSpaceOnUse">
<stop offset="0.841346" stop-color="#6400C3"/>
</linearGradient>
<linearGradient id="paint6_linear_159_570" x1="363.298" y1="267.359" x2="363.298" y2="98.0583" gradientUnits="userSpaceOnUse">
<stop offset="0.841346" stop-color="#7F21D7"/>
</linearGradient>
<linearGradient id="paint7_linear_159_570" x1="285.687" y1="182.709" x2="440.909" y2="182.709" gradientUnits="userSpaceOnUse">
<stop stop-color="#D8C4EB"/>
<stop offset="1" stop-color="#E0DCE3"/>
</linearGradient>
<linearGradient id="paint8_linear_159_570" x1="285.687" y1="182.709" x2="440.909" y2="182.709" gradientUnits="userSpaceOnUse">
<stop stop-color="#9541E4"/>
<stop offset="1" stop-color="#E0DCE3"/>
</linearGradient>
<linearGradient id="paint9_linear_159_570" x1="285.687" y1="182.709" x2="440.909" y2="182.709" gradientUnits="userSpaceOnUse">
<stop stop-color="#9541E4"/>
<stop offset="1" stop-color="#D4B4F2"/>
</linearGradient>
<linearGradient id="paint10_linear_159_570" x1="560.849" y1="429.01" x2="560.849" y2="3.05176e-05" gradientUnits="userSpaceOnUse">
<stop offset="0.841346" stop-color="#7F21D7"/>
</linearGradient>
<linearGradient id="paint11_linear_159_570" x1="428.278" y1="214.505" x2="693.42" y2="214.505" gradientUnits="userSpaceOnUse">
<stop stop-color="#D8C4EB"/>
<stop offset="1" stop-color="#E0DCE3"/>
</linearGradient>
<linearGradient id="paint12_linear_159_570" x1="428.278" y1="214.505" x2="693.42" y2="214.505" gradientUnits="userSpaceOnUse">
<stop stop-color="#9541E4"/>
<stop offset="1" stop-color="#E0DCE3"/>
</linearGradient>
<linearGradient id="paint13_linear_159_570" x1="428.278" y1="214.505" x2="693.42" y2="214.505" gradientUnits="userSpaceOnUse">
<stop stop-color="#9541E4"/>
<stop offset="1" stop-color="#D4B4F2"/>
</linearGradient>
<linearGradient id="paint14_linear_159_570" x1="425.727" y1="301.959" x2="425.727" y2="160.256" gradientUnits="userSpaceOnUse">
<stop offset="0.100962" stop-color="#EE0088"/>
<stop offset="0.375" stop-color="#BD27C9"/>
<stop offset="0.841346" stop-color="#6400C3"/>
</linearGradient>
<linearGradient id="paint15_linear_159_570" x1="425.727" y1="301.959" x2="425.727" y2="160.256" gradientUnits="userSpaceOnUse">
<stop offset="0.841346" stop-color="#6400C3"/>
</linearGradient>
<linearGradient id="paint16_linear_159_570" x1="425.727" y1="301.959" x2="425.727" y2="160.256" gradientUnits="userSpaceOnUse">
<stop offset="0.841346" stop-color="#7F21D7"/>
</linearGradient>
<linearGradient id="paint17_linear_159_570" x1="228.815" y1="231.108" x2="622.639" y2="231.108" gradientUnits="userSpaceOnUse">
<stop stop-color="#D8C4EB"/>
<stop offset="1" stop-color="#E0DCE3"/>
</linearGradient>
<linearGradient id="paint18_linear_159_570" x1="228.815" y1="231.108" x2="622.639" y2="231.108" gradientUnits="userSpaceOnUse">
<stop stop-color="#9541E4"/>
<stop offset="1" stop-color="#E0DCE3"/>
</linearGradient>
<linearGradient id="paint19_linear_159_570" x1="228.815" y1="231.108" x2="622.639" y2="231.108" gradientUnits="userSpaceOnUse">
<stop stop-color="#9541E4"/>
<stop offset="1" stop-color="#D4B4F2"/>
</linearGradient>
<linearGradient id="paint20_linear_159_570" x1="402.58" y1="339.375" x2="402.58" y2="207.436" gradientUnits="userSpaceOnUse">
<stop offset="0.100962" stop-color="#EE0088"/>
<stop offset="0.375" stop-color="#BD27C9"/>
<stop offset="0.841346" stop-color="#6400C3"/>
</linearGradient>
<linearGradient id="paint21_linear_159_570" x1="402.58" y1="339.375" x2="402.58" y2="207.436" gradientUnits="userSpaceOnUse">
<stop offset="0.100962" stop-color="#920857"/>
<stop offset="0.375" stop-color="#64146B"/>
<stop offset="0.841346" stop-color="#6400C3"/>
</linearGradient>
<linearGradient id="paint22_linear_159_570" x1="402.58" y1="339.375" x2="402.58" y2="207.436" gradientUnits="userSpaceOnUse">
<stop offset="0.841346" stop-color="#6400C3"/>
</linearGradient>
<linearGradient id="paint23_linear_159_570" x1="402.58" y1="339.375" x2="402.58" y2="207.436" gradientUnits="userSpaceOnUse">
<stop offset="0.841346" stop-color="#7F21D7"/>
</linearGradient>
<linearGradient id="paint24_linear_159_570" x1="213" y1="273.405" x2="592.161" y2="273.405" gradientUnits="userSpaceOnUse">
<stop stop-color="#D8C4EB"/>
<stop offset="1" stop-color="#E0DCE3"/>
</linearGradient>
<linearGradient id="paint25_linear_159_570" x1="213" y1="273.405" x2="592.161" y2="273.405" gradientUnits="userSpaceOnUse">
<stop stop-color="#9541E4"/>
<stop offset="1" stop-color="#E0DCE3"/>
</linearGradient>
<linearGradient id="paint26_linear_159_570" x1="213" y1="273.405" x2="592.161" y2="273.405" gradientUnits="userSpaceOnUse">
<stop stop-color="#9541E4"/>
<stop offset="1" stop-color="#D4B4F2"/>
</linearGradient>
<linearGradient id="paint27_linear_159_570" x1="262.966" y1="429.652" x2="262.966" y2="332.754" gradientUnits="userSpaceOnUse">
<stop/>
<stop offset="1" stop-color="#7400FF"/>
</linearGradient>
<linearGradient id="paint28_linear_159_570" x1="262.966" y1="429.652" x2="262.966" y2="332.754" gradientUnits="userSpaceOnUse">
<stop stop-color="#E273E3"/>
<stop offset="1" stop-color="#7400FF"/>
</linearGradient>
<linearGradient id="paint29_linear_159_570" x1="262.966" y1="429.652" x2="262.966" y2="332.754" gradientUnits="userSpaceOnUse">
<stop offset="0.259615" stop-color="#D609D7"/>
<stop offset="0.923077" stop-color="#865CB9"/>
</linearGradient>
<linearGradient id="paint30_linear_159_570" x1="262.966" y1="429.652" x2="262.966" y2="332.754" gradientUnits="userSpaceOnUse">
<stop offset="0.259615" stop-color="#D609D7"/>
<stop offset="0.644231" stop-color="#9A46E8"/>
</linearGradient>
<linearGradient id="paint31_linear_159_570" x1="262.966" y1="429.652" x2="262.966" y2="332.754" gradientUnits="userSpaceOnUse">
<stop offset="0.9999" stop-color="#FF7A43"/>
<stop offset="1" stop-color="#9A46E8"/>
</linearGradient>
<linearGradient id="paint32_linear_159_570" x1="262.966" y1="429.652" x2="262.966" y2="332.754" gradientUnits="userSpaceOnUse">
<stop offset="0.100962" stop-color="#EE0088"/>
<stop offset="0.375" stop-color="#BD27C9"/>
<stop offset="0.841346" stop-color="#911DFF"/>
</linearGradient>
<linearGradient id="paint33_linear_159_570" x1="262.966" y1="429.652" x2="262.966" y2="332.754" gradientUnits="userSpaceOnUse">
<stop offset="0.100962" stop-color="#EE0088"/>
<stop offset="0.375" stop-color="#BD27C9"/>
<stop offset="0.841346" stop-color="#6400C3"/>
</linearGradient>
<linearGradient id="paint34_linear_159_570" x1="262.966" y1="429.652" x2="262.966" y2="332.754" gradientUnits="userSpaceOnUse">
<stop offset="0.100962" stop-color="#920857"/>
<stop offset="0.375" stop-color="#64146B"/>
<stop offset="0.841346" stop-color="#6400C3"/>
</linearGradient>
<linearGradient id="paint35_linear_159_570" x1="262.966" y1="429.652" x2="262.966" y2="332.754" gradientUnits="userSpaceOnUse">
<stop offset="0.841346" stop-color="#6400C3"/>
</linearGradient>
<linearGradient id="paint36_linear_159_570" x1="262.966" y1="429.652" x2="262.966" y2="332.754" gradientUnits="userSpaceOnUse">
<stop offset="0.841346" stop-color="#7F21D7"/>
</linearGradient>
<linearGradient id="paint37_linear_159_570" x1="219.513" y1="381.203" x2="306.419" y2="381.203" gradientUnits="userSpaceOnUse">
<stop stop-color="#D8C4EB"/>
<stop offset="1" stop-color="#E0DCE3"/>
</linearGradient>
<linearGradient id="paint38_linear_159_570" x1="219.513" y1="381.203" x2="306.419" y2="381.203" gradientUnits="userSpaceOnUse">
<stop stop-color="#9541E4"/>
<stop offset="1" stop-color="#E0DCE3"/>
</linearGradient>
<linearGradient id="paint39_linear_159_570" x1="219.513" y1="381.203" x2="306.419" y2="381.203" gradientUnits="userSpaceOnUse">
<stop stop-color="#9541E4"/>
<stop offset="1" stop-color="#D4B4F2"/>
</linearGradient>
<linearGradient id="paint40_linear_159_570" x1="1" y1="542" x2="904" y2="542" gradientUnits="userSpaceOnUse">
<stop stop-color="#9541E4"/>
<stop offset="1" stop-color="#D4B4F2"/>
</linearGradient>
</defs>
</svg>
